<?xml version="1.0" standalone="no"?>
<!DOCTYPE svg PUBLIC "-//W3C//DTD SVG 20010904//EN"
 "http://www.w3.org/TR/2001/REC-SVG-20010904/DTD/svg10.dtd">
<svg version="1.0" xmlns="http://www.w3.org/2000/svg"
 width="1122.000000pt" height="767.000000pt" viewBox="0 0 1122.000000 767.000000"
 preserveAspectRatio="xMidYMid meet">

<g transform="translate(0.000000,767.000000) scale(0.100000,-0.100000)"
fill="#000000" stroke="none">
<path d="M0 7641 c0 -20 6 -31 18 -34 16 -4 16 -5 0 -6 -13 -1 -18 -10 -18
-32 0 -24 4 -30 15 -25 8 3 15 0 15 -6 0 -6 9 1 20 15 27 34 58 44 73 23 10
-14 16 -15 39 -4 15 7 30 23 33 36 3 13 9 20 14 18 12 -8 72 13 91 30 12 12
-9 14 -143 14 l-157 0 0 -29z m144 -43 c-9 -14 -23 2 -17 18 4 12 8 13 14 3 4
-7 5 -17 3 -21z"/>
<path d="M7190 7520 c-137 -21 -318 -59 -450 -94 -52 -14 -183 -48 -290 -76
-107 -27 -265 -67 -350 -90 -163 -42 -637 -160 -1025 -255 -126 -30 -284 -69
-350 -85 -110 -27 -299 -72 -705 -166 -85 -20 -197 -47 -248 -60 -181 -46
-591 -139 -932 -209 -281 -58 -476 -102 -815 -185 -110 -27 -267 -65 -350 -85
-366 -87 -682 -171 -911 -242 -130 -39 -159 -85 -223 -343 -190 -777 -327
-1938 -319 -2711 l3 -317 -40 -18 c-76 -36 -120 -176 -101 -328 16 -122 104
-196 259 -215 52 -6 95 -18 125 -35 158 -87 211 -108 375 -144 l166 -36 6 -46
c12 -97 38 -218 61 -288 13 -40 24 -80 23 -90 0 -10 -3 -12 -6 -4 -2 6 -11 12
-19 12 -8 0 -14 -6 -14 -12 0 -10 -2 -10 -8 -1 -6 10 -60 10 -247 3 -273 -11
-724 -38 -773 -46 l-33 -5 3 -147 3 -147 39 -6 c22 -4 45 -15 53 -25 9 -12 16
-15 24 -7 12 12 84 1 142 -22 21 -8 50 -15 65 -14 40 1 192 -19 232 -32 52
-15 534 -51 538 -39 4 12 32 13 32 1 0 -12 82 -21 95 -11 7 5 16 6 21 1 15
-14 62 -22 68 -12 4 5 0 12 -6 14 -7 3 1 4 19 2 17 -2 41 -9 53 -15 18 -10 24
-9 31 1 6 9 9 10 9 2 0 -12 45 -21 125 -25 46 -2 50 0 48 20 -2 14 3 22 13 22
10 0 13 -6 9 -19 -4 -14 0 -20 17 -25 38 -10 58 -7 58 9 0 8 5 15 10 15 6 0
10 -9 10 -19 0 -16 9 -21 45 -27 25 -3 58 -3 73 0 48 12 57 11 54 -1 -3 -16
-13 -14 101 -19 54 -2 107 -9 117 -14 11 -6 31 -8 46 -4 17 5 29 2 35 -7 9
-15 95 -32 249 -49 52 -6 111 -15 130 -20 19 -6 76 -14 125 -20 110 -11 304
-35 445 -55 58 -8 150 -19 205 -25 55 -6 138 -17 185 -25 193 -35 436 -76 450
-77 8 0 49 -9 90 -20 41 -11 86 -21 100 -23 60 -8 157 -28 175 -35 11 -5 74
-18 140 -29 355 -59 449 -77 475 -91 9 -5 27 -6 39 -3 17 4 24 1 28 -15 4 -18
19 -28 53 -37 3 -1 13 -5 22 -9 10 -5 31 -3 48 3 20 7 39 7 56 1 14 -6 29 -8
34 -5 5 3 11 1 15 -5 3 -5 24 -10 46 -10 21 0 47 -4 57 -10 43 -25 295 -56
677 -85 175 -14 323 -16 730 -14 281 2 620 2 755 1 227 -3 338 1 400 13 24 5
24 5 6 -10 -14 -11 -46 -15 -110 -16 -85 -1 -88 -2 -46 -11 68 -15 195 -14
405 5 105 9 294 24 420 33 127 8 280 22 340 30 61 8 151 19 200 25 95 10 216
25 325 40 36 5 124 16 195 24 340 41 501 71 532 101 7 7 18 14 25 17 36 12
-40 33 -347 96 -256 52 -324 63 -357 63 -16 0 -28 2 -28 6 0 4 27 22 61 40 82
45 151 117 244 255 67 100 83 117 109 122 17 2 153 14 301 25 384 30 429 43
506 145 107 142 120 316 30 386 l-31 25 7 149 c5 83 6 362 3 620 -4 372 -2
473 8 483 34 37 47 78 47 157 0 68 -5 88 -28 132 -15 28 -38 63 -52 77 -21 21
-26 38 -30 93 -10 136 -17 189 -30 216 -13 25 -12 31 11 64 34 50 32 96 -16
418 -43 283 -56 374 -115 800 -47 335 -101 706 -120 820 -17 100 -35 347 -26
356 7 8 208 -31 302 -57 82 -23 141 -79 163 -154 18 -61 16 -69 -19 -62 -36 6
-78 -14 -98 -47 -29 -50 -39 -163 -36 -400 4 -251 9 -272 77 -318 44 -29 153
-48 221 -37 80 13 91 33 103 185 11 136 3 453 -12 510 -8 30 -18 40 -50 53
-38 15 -40 18 -40 59 0 106 -69 277 -136 336 -53 46 -104 63 -309 103 -88 17
-165 32 -171 33 -6 2 -14 40 -18 88 -23 288 -144 501 -383 673 -64 46 -297
163 -418 209 -169 65 -509 164 -770 224 -71 17 -164 39 -205 50 -236 62 -648
127 -892 141 -235 13 -333 11 -468 -10z m567 -40 c227 -19 578 -81 938 -165
557 -131 934 -266 1176 -421 81 -52 102 -78 28 -34 -128 74 -275 141 -419 190
-111 38 -340 110 -411 129 -41 10 -123 33 -184 49 -267 71 -516 126 -770 167
-217 36 -535 70 -570 61 -11 -3 -83 -6 -160 -7 -77 -1 -144 -5 -150 -9 -5 -4
-23 -10 -40 -14 -47 -11 -189 -92 -257 -147 -117 -93 -185 -190 -232 -332 -13
-38 -22 -88 -46 -262 -7 -48 -8 -42 -4 35 3 52 10 118 16 145 16 78 19 125 8
125 -6 0 -10 7 -10 16 0 8 -5 12 -10 9 -8 -5 -7 -11 0 -20 8 -10 10 -38 5 -90
-4 -41 -9 -75 -10 -75 -18 0 -35 16 -34 34 0 11 3 15 6 9 7 -18 23 -16 23 2 0
8 -5 15 -11 15 -5 0 -7 5 -3 12 5 8 2 9 -11 5 -16 -7 -17 -2 -11 50 6 56 5 57
-9 28 -33 -67 -88 -406 -135 -835 -5 -47 -14 -119 -20 -160 -15 -110 -76 -838
-105 -1260 -14 -201 -29 -399 -33 -440 l-7 -75 -250 -22 c-365 -32 -780 -62
-1025 -73 -118 -5 -250 -13 -293 -16 l-79 -7 6 74 c3 41 13 160 21 264 18 223
44 473 51 498 3 9 12 17 21 17 13 0 15 -9 9 -62 -4 -35 -11 -117 -16 -183 -5
-66 -16 -192 -25 -280 -17 -188 -19 -245 -5 -245 6 0 10 29 10 68 0 37 5 108
10 158 5 51 16 186 24 301 15 212 20 243 39 243 11 0 9 -30 -23 -350 -11 -113
-20 -237 -20 -277 0 -69 1 -72 31 -94 55 -39 100 -37 754 26 138 13 295 26
350 30 127 8 167 19 210 56 38 34 44 32 19 -6 -28 -43 -74 -62 -170 -69 -49
-4 -152 -13 -229 -21 -130 -14 -331 -32 -600 -55 -192 -17 -229 -26 -200 -50
21 -17 296 -1 900 55 216 20 278 30 309 50 14 9 29 14 35 11 15 -10 50 74 60
149 6 39 17 162 26 275 32 414 46 571 106 1185 6 61 18 151 26 200 9 50 16
126 18 170 1 44 5 139 10 211 10 163 -1 218 -55 275 -37 39 -51 44 -120 40
-38 -2 -470 -73 -585 -96 -38 -8 -124 -23 -190 -35 -145 -25 -267 -56 -317
-81 -66 -33 -116 -178 -158 -459 -12 -80 -25 -164 -30 -188 -4 -23 -4 -45 1
-47 4 -3 79 6 166 20 245 40 407 63 414 59 4 -2 4 -16 2 -31 -10 -67 -14 -75
-29 -69 -9 3 -37 0 -62 -8 -26 -8 -112 -22 -192 -31 -79 -9 -147 -18 -150 -22
-3 -3 20 -3 50 1 200 24 190 16 -20 -19 -85 -14 -166 -28 -180 -31 -18 -5 -22
-4 -15 4 6 7 28 14 50 17 94 13 110 24 28 19 -81 -6 -96 -1 -71 24 9 9 8 12
-6 12 -19 0 -20 -16 9 195 48 339 105 533 168 566 35 19 188 57 362 88 88 16
216 41 285 55 356 70 490 89 540 76 51 -14 106 -75 115 -129 7 -42 25 -66 25
-33 0 47 -33 113 -77 152 -73 64 -91 62 -748 -69 -409 -82 -481 -100 -522
-126 -73 -48 -141 -306 -188 -720 -9 -77 -25 -203 -35 -280 -10 -77 -22 -167
-25 -200 -11 -103 -12 -105 -56 -105 -47 0 -45 -18 -19 210 23 200 59 433 95
618 39 195 42 277 16 337 -12 26 -29 54 -39 62 -57 46 -173 67 -267 50 -26 -5
-35 -5 -25 1 18 11 324 86 580 141 102 22 392 87 645 144 253 57 522 116 599
131 76 14 143 29 148 32 11 7 16 19 89 194 50 122 91 187 125 200 31 12 312
66 434 84 116 17 404 20 577 6z m-1077 -116 c0 -4 -16 -26 -35 -50 -19 -23
-35 -45 -35 -49 0 -10 -91 -219 -99 -227 -4 -5 -76 -19 -161 -32 -152 -24
-221 -39 -470 -96 -231 -54 -430 -92 -395 -75 14 6 178 44 245 56 30 5 64 13
75 18 11 5 90 23 175 40 85 17 182 38 215 46 33 8 101 19 150 25 131 17 131
17 3 17 -65 0 -115 -4 -112 -8 6 -10 -46 -12 -70 -3 -13 5 -14 9 -5 20 9 11 8
14 -4 14 -28 0 -68 -20 -62 -30 8 -13 8 -13 -40 5 -35 12 -37 14 -13 15 31 0
105 40 76 40 -10 0 -18 5 -18 11 0 12 -74 5 -114 -11 -11 -5 -43 -14 -69 -21
-32 -8 -44 -15 -35 -20 7 -5 -2 -6 -22 -3 -21 3 -59 -2 -95 -14 -33 -11 -85
-25 -115 -32 -74 -17 -259 -64 -400 -102 -63 -16 -182 -47 -265 -68 -82 -21
-177 -46 -210 -55 -114 -32 -130 -35 -230 -50 -133 -20 -577 -112 -651 -135
-17 -6 -43 -10 -59 -10 -15 0 -44 -4 -64 -10 -74 -20 -287 -72 -311 -77 -14
-2 -61 -13 -105 -23 -44 -11 -134 -31 -200 -45 -66 -13 -133 -29 -150 -34 -16
-5 -64 -16 -105 -26 -41 -9 -113 -25 -160 -35 -47 -11 -141 -31 -210 -45 -179
-37 -330 -71 -530 -120 -315 -76 -620 -135 -640 -124 -12 7 -11 8 4 9 11 0 17
2 14 5 -3 3 -20 2 -38 -2 -29 -5 -31 -7 -15 -15 14 -5 10 -6 -12 -2 -32 5
-181 -20 -212 -36 -9 -5 -63 -21 -121 -35 -128 -33 -239 -72 -264 -94 -20 -18
-50 -70 -43 -77 2 -2 27 1 55 7 28 6 60 8 69 6 12 -3 10 -5 -7 -6 -14 0 -56
-9 -93 -20 -37 -10 -69 -15 -71 -12 -3 4 9 35 26 69 35 73 20 66 258 133 96
27 213 60 260 74 88 26 675 173 815 205 44 10 215 48 380 84 1223 271 1311
291 1800 411 77 19 282 68 455 109 391 93 1094 267 1380 342 681 179 680 179
680 168z m1383 -11 c-7 -2 -19 -2 -25 0 -7 3 -2 5 12 5 14 0 19 -2 13 -5z m82
-13 c14 -7 8 -8 -20 -3 -22 3 -42 7 -44 9 -9 8 45 2 64 -6z m245 -60 l25 -8
-25 0 c-14 0 -34 3 -45 8 l-20 9 20 -1 c11 0 31 -4 45 -8z m-662 -6 c91 -7
109 -16 53 -27 -41 -8 -97 -61 -112 -104 -6 -20 -9 -63 -7 -97 13 -152 132
-266 279 -266 98 0 149 43 170 145 10 51 10 68 -4 116 -21 71 -66 132 -124
169 -26 17 -42 30 -36 30 30 0 518 -129 653 -173 41 -13 155 -50 253 -82 l178
-57 -34 -37 c-48 -53 -71 -119 -64 -180 7 -56 36 -120 69 -151 27 -25 18 -36
-19 -22 -52 20 -357 81 -633 127 -151 25 -328 59 -395 76 -269 68 -632 126
-719 114 -46 -6 -102 -29 -137 -57 -69 -56 -126 -248 -163 -553 -21 -171 -47
-437 -76 -765 -30 -356 -60 -852 -60 -1010 0 -91 13 -154 36 -178 17 -16 17
-20 -7 86 -10 49 -5 389 7 401 2 2 4 -80 4 -183 0 -212 12 -274 62 -332 23
-26 26 -34 14 -34 -9 0 -19 7 -22 15 -6 16 -34 21 -34 7 0 -14 48 -35 65 -28
9 3 42 -5 73 -18 66 -27 155 -44 442 -81 113 -14 248 -32 300 -39 90 -13 92
-14 40 -16 -46 -2 -34 -5 75 -20 72 -10 139 -19 149 -19 11 -1 17 -3 15 -6 -3
-2 -115 6 -250 20 -134 13 -361 36 -504 50 -297 29 -338 35 -417 65 -69 26
-102 62 -124 138 -14 48 -16 86 -10 249 9 256 60 925 97 1258 11 104 94 782
110 900 40 304 122 432 329 520 117 49 261 64 478 49z m725 -11 c-7 -2 -19 -2
-25 0 -7 3 -2 5 12 5 14 0 19 -2 13 -5z m-523 -135 c58 -60 66 -181 15 -225
-71 -62 -155 16 -155 145 0 76 24 112 76 112 25 0 42 -8 64 -32z m-1887 -55
c-7 -2 -19 -2 -25 0 -7 3 -2 5 12 5 14 0 19 -2 13 -5z m-55 -18 c-2 -1 -16 -5
-31 -9 -24 -6 -26 -5 -16 7 8 8 22 12 32 9 10 -2 16 -6 15 -7z m90 -52 c2 -7
-2 -13 -9 -13 -19 0 -79 23 -79 30 0 12 83 -5 88 -17z m52 17 c0 -5 -4 -10
-10 -10 -5 0 -10 5 -10 10 0 6 5 10 10 10 6 0 10 -4 10 -10z m467 -187 c-3
-10 -5 -2 -5 17 0 19 2 27 5 18 2 -10 2 -26 0 -35z m2866 -18 c329 -101 447
-179 559 -367 36 -61 123 -288 110 -288 -2 0 -26 13 -51 28 -101 62 -459 192
-671 243 -52 12 -97 24 -99 25 -2 2 8 17 22 34 35 41 51 103 43 169 -7 59 -45
148 -76 176 -25 22 -26 38 -2 31 9 -3 83 -26 165 -51z m-274 -8 c30 -27 60
-93 61 -130 0 -15 -7 -41 -15 -57 -55 -106 -196 -32 -195 102 1 102 81 147
149 85z m-3739 14 c0 -5 -26 -15 -57 -21 -32 -7 -76 -16 -98 -22 -303 -74
-422 -97 -411 -79 4 6 21 11 37 11 30 0 84 11 264 57 55 14 123 29 152 34 28
5 62 13 75 18 30 13 38 13 38 2z m2001 -31 c177 -28 316 -55 461 -91 142 -35
387 -83 538 -105 58 -9 168 -29 245 -45 143 -30 181 -39 390 -89 66 -15 140
-31 165 -34 134 -16 635 -179 756 -246 53 -30 57 -35 39 -50 -16 -13 -18 -13
-205 60 -25 10 -85 30 -135 45 -49 15 -108 33 -130 41 -62 21 -269 80 -383
109 -118 30 -151 25 -177 -26 -20 -38 -20 -48 20 -285 20 -115 51 -303 70
-419 19 -115 44 -262 55 -325 18 -105 45 -286 85 -570 9 -58 24 -199 35 -315
12 -115 27 -237 35 -270 8 -33 18 -82 21 -108 4 -26 9 -45 12 -43 2 3 13 -5
23 -19 11 -13 34 -28 52 -34 40 -13 353 -58 472 -67 50 -4 84 -9 77 -12 -8 -2
-80 1 -160 7 -170 14 -226 17 -412 26 -74 3 -162 8 -195 10 -512 32 -729 53
-955 95 -91 17 -216 40 -278 51 -62 12 -111 23 -108 26 2 3 49 -2 103 -11 291
-46 683 -82 991 -92 197 -6 214 -5 233 11 41 38 58 81 69 173 19 153 -14 454
-135 1242 -43 275 -133 719 -150 736 -8 9 -15 23 -15 32 0 23 -36 135 -54 170
-17 34 -95 107 -122 115 -50 15 -559 119 -909 186 -646 123 -649 123 -720 53
-36 -36 -70 -125 -90 -239 -25 -145 -58 -386 -79 -573 -3 -25 -14 -126 -25
-225 -19 -174 -51 -565 -70 -865 l-10 -145 5 185 c5 246 28 575 60 845 14 121
31 276 39 345 28 255 49 410 55 410 4 0 5 14 2 30 -2 17 0 36 6 43 6 7 13 24
16 39 2 14 9 35 15 46 6 12 11 28 11 37 0 10 14 35 31 57 45 57 29 58 -18 1
-36 -42 -44 -62 -67 -163 -14 -63 -30 -144 -36 -180 -17 -112 -21 -144 -25
-180 -2 -19 -9 -60 -14 -90 -9 -51 -10 -49 -5 30 17 287 79 546 148 612 78 76
124 83 347 48z m-804 -22 c-3 -7 -5 -2 -5 12 0 14 2 19 5 13 2 -7 2 -19 0 -25z
m-72 -96 c-12 -47 -17 -13 -8 55 l8 68 3 -49 c2 -27 0 -61 -3 -74z m32 16 c-3
-8 -6 -5 -6 6 -1 11 2 17 5 13 3 -3 4 -12 1 -19z m-2127 -2 c0 -2 -11 -6 -25
-8 -14 -3 -25 -1 -25 3 0 5 11 9 25 9 14 0 25 -2 25 -4z m3060 -30 c157 -25
556 -93 700 -121 74 -14 194 -37 265 -50 250 -47 276 -55 316 -94 40 -40 55
-83 88 -246 33 -167 83 -486 77 -492 -5 -5 -60 7 -366 82 -152 37 -432 86
-610 107 -143 16 -724 16 -805 -1 -72 -16 -152 -57 -161 -83 -33 -106 28 358
86 652 29 145 55 220 87 248 27 23 32 24 128 18 55 -3 143 -12 195 -20z
m-1225 -16 c14 -16 18 -35 16 -97 -1 -43 -6 -103 -11 -133 -5 -30 -14 -100
-20 -155 -6 -55 -13 -115 -16 -134 l-5 -34 -100 7 c-55 4 -111 11 -125 16 -40
16 -74 21 -169 27 -74 4 -105 2 -170 -16 -105 -29 -143 -55 -157 -107 l-11
-40 -206 -28 c-113 -15 -224 -32 -245 -36 -22 -5 -43 -7 -46 -5 -22 13 36 342
76 433 42 95 146 182 219 182 12 0 35 4 51 9 46 14 128 30 299 56 88 14 214
34 280 45 66 10 131 21 145 23 14 2 59 5 101 6 64 1 79 -2 94 -19z m-2012 3
c-7 -2 -19 -2 -25 0 -7 3 -2 5 12 5 14 0 19 -2 13 -5z m-78 -13 c-3 -5 -11
-10 -16 -10 -6 0 -7 5 -4 10 3 6 11 10 16 10 6 0 7 -4 4 -10z m2425 -45 c0
-23 -3 -27 -10 -15 -5 8 -10 29 -10 45 0 23 3 27 10 15 5 -8 10 -28 10 -45z
m-43 3 c-3 -7 -5 -2 -5 12 0 14 2 19 5 13 2 -7 2 -19 0 -25z m-2542 12 c-3 -5
-11 -10 -16 -10 -6 0 -7 5 -4 10 3 6 11 10 16 10 6 0 7 -4 4 -10z m252 -36
c-3 -3 -12 -4 -19 -1 -8 3 -5 6 6 6 11 1 17 -2 13 -5z m2278 -23 c3 -5 1 -12
-5 -16 -5 -3 -10 1 -10 9 0 18 6 21 15 7z m-2130 -21 c-16 -4 -39 -8 -50 -8
l-20 -1 20 9 c11 5 34 8 50 8 l30 0 -30 -8z m243 -7 c-10 -2 -26 -2 -35 0 -10
3 -2 5 17 5 19 0 27 -2 18 -5z m-88 -14 c-19 -4 -96 -20 -170 -34 -138 -26
-209 -41 -480 -100 -303 -67 -402 -87 -406 -82 -5 5 74 24 251 62 66 14 147
32 180 41 33 8 94 21 135 29 41 7 131 25 200 40 196 41 263 53 295 53 30 0 29
0 -5 -9z m-307 -6 c-7 -2 -19 -2 -25 0 -7 3 -2 5 12 5 14 0 19 -2 13 -5z m-43
-7 c0 -2 -9 -6 -20 -9 -11 -3 -18 -1 -14 4 5 9 34 13 34 5z m2361 -98 l-11
-33 5 34 c3 18 6 50 7 70 l1 36 4 -37 c2 -20 -1 -51 -6 -70z m-2638 35 c-7 -2
-19 -2 -25 0 -7 3 -2 5 12 5 14 0 19 -2 13 -5z m781 -52 c19 -20 30 -43 33
-73 5 -43 -40 -352 -57 -394 -10 -24 30 -16 -525 -109 -181 -31 -418 -71 -525
-89 -271 -47 -374 -60 -394 -53 -13 5 -16 14 -11 44 31 184 134 474 151 427 3
-7 26 -5 72 7 273 73 389 101 542 133 272 56 530 115 548 126 10 5 44 10 78
10 54 0 63 -3 88 -29z m-1135 -26 c-6 -5 -159 -36 -174 -34 -5 1 22 9 60 19
68 18 123 25 114 15z m-392 -11 c-3 -3 -12 -4 -19 -1 -8 3 -5 6 6 6 11 1 17
-2 13 -5z m5896 -1 c-7 -2 -21 -2 -30 0 -10 3 -4 5 12 5 17 0 24 -2 18 -5z
m-52 -106 c5 -45 12 -113 18 -152 54 -385 62 -434 55 -325 -3 41 -12 120 -20
175 -8 55 -17 148 -21 207 l-6 106 42 20 c22 11 43 17 46 12 2 -4 15 -5 29 -3
59 12 288 -44 526 -128 321 -113 369 -155 410 -366 10 -54 28 -174 40 -268 12
-93 35 -258 51 -365 42 -272 116 -783 135 -920 9 -63 16 -158 17 -210 l2 -95
-42 -3 c-105 -8 -943 96 -943 117 0 4 19 7 43 8 193 6 409 55 499 112 26 17
63 52 83 78 l36 48 -5 190 c-6 259 -46 524 -107 712 -81 251 -246 423 -455
477 -72 19 -229 21 -305 5 -41 -9 -54 -8 -65 2 -7 8 -20 69 -29 144 -9 72 -25
191 -35 265 -20 134 -26 260 -13 246 4 -3 10 -44 14 -89z m49 64 c0 -6 -4 -13
-10 -16 -5 -3 -10 1 -10 9 0 9 5 16 10 16 6 0 10 -4 10 -9z m-5600 -21 c-8 -5
-37 -14 -65 -21 -62 -14 -109 -49 -134 -97 -28 -56 -66 -184 -91 -307 -32
-161 -38 -185 -39 -155 -1 30 26 184 39 225 5 17 14 54 20 83 10 55 64 187 84
207 35 35 125 72 181 74 16 1 17 -1 5 -9z m-317 -17 c-7 -2 -21 -2 -30 0 -10
3 -4 5 12 5 17 0 24 -2 18 -5z m-60 -10 c-7 -2 -21 -2 -30 0 -10 3 -4 5 12 5
17 0 24 -2 18 -5z m3344 -50 c-3 -10 -5 -4 -5 12 0 17 2 24 5 18 2 -7 2 -21 0
-30z m-3492 18 c-12 -10 -171 -51 -240 -61 -27 -5 -129 -25 -225 -45 -203 -44
-257 -52 -190 -30 25 9 104 26 175 40 126 24 303 62 415 89 69 18 77 18 65 7z
m1815 -208 c-12 -76 -26 -163 -31 -193 -8 -53 -24 -175 -54 -415 l-14 -110 5
90 c5 85 36 360 53 470 19 122 56 314 59 306 2 -5 -6 -72 -18 -148z m5260 123
c0 -3 -4 -8 -10 -11 -5 -3 -10 -1 -10 4 0 6 5 11 10 11 6 0 10 -2 10 -4z m385
-51 c126 -22 254 -54 286 -70 72 -38 142 -176 156 -309 l6 -55 -28 7 c-24 7
-30 16 -44 73 -20 81 -66 141 -133 175 -30 15 -113 38 -211 58 l-162 32 -3 57
c-3 56 -2 57 20 53 13 -3 64 -13 113 -21z m-4531 9 c57 -8 59 -20 6 -29 -45
-8 -100 -48 -100 -73 -1 -14 -4 -14 -18 4 -38 45 -79 51 -153 23 -29 -12 -67
-58 -79 -98 -7 -22 -8 -19 -9 20 -2 91 30 130 121 148 54 11 170 13 232 5z
m343 -60 c-2 -2 -34 -1 -71 3 -37 3 -62 9 -56 13 10 6 134 -9 127 -16z m-3800
10 c-3 -3 -12 -4 -19 -1 -8 3 -5 6 6 6 11 1 17 -2 13 -5z m-327 -14 c-14 -4
-36 -8 -50 -8 -22 0 -22 1 5 8 17 4 39 8 50 8 16 0 15 -2 -5 -8z m4787 -37
c-3 -10 -5 -2 -5 17 0 19 2 27 5 18 2 -10 2 -26 0 -35z m-4540 31 c-3 -3 -12
-4 -19 -1 -8 3 -5 6 6 6 11 1 17 -2 13 -5z m571 -3 c16 -9 -42 -21 -98 -20
-31 1 -28 2 20 14 30 7 57 13 60 13 3 1 11 -2 18 -7z m76 -7 c11 -28 6 -80
-19 -228 -14 -80 -25 -149 -25 -154 0 -15 -203 -53 -703 -132 -210 -34 -390
-63 -399 -66 -25 -8 -23 21 11 151 39 149 68 223 92 236 11 6 46 17 77 25 49
13 57 13 64 0 5 -9 15 -13 25 -9 14 6 14 7 -1 19 -15 10 -12 13 26 20 24 4 78
8 120 8 42 1 80 5 85 10 4 5 -4 7 -19 4 -15 -3 -25 -1 -22 3 9 14 76 23 83 10
5 -8 21 -8 57 -1 27 6 94 19 149 30 55 10 111 21 125 24 14 3 74 12 135 21 60
9 112 19 115 21 2 3 -2 9 -10 14 -12 8 -11 10 6 10 12 0 25 -7 28 -16z m-994
-4 c-8 -5 -22 -9 -30 -9 -10 0 -8 3 5 9 27 12 43 12 25 0z m-65 -20 c-11 -5
-29 -9 -40 -9 l-20 0 20 9 c11 5 29 9 40 9 l20 0 -20 -9z m282 4 c-3 -3 -12
-4 -19 -1 -8 3 -5 6 6 6 11 1 17 -2 13 -5z m3486 -11 c-7 -2 -19 -2 -25 0 -7
3 -2 5 12 5 14 0 19 -2 13 -5z m-3840 -10 c-7 -2 -19 -2 -25 0 -7 3 -2 5 12 5
14 0 19 -2 13 -5z m190 -20 c-7 -2 -19 -2 -25 0 -7 3 -2 5 12 5 14 0 19 -2 13
-5z m510 0 c-7 -2 -19 -2 -25 0 -7 3 -2 5 12 5 14 0 19 -2 13 -5z m4324 -25
c-3 -8 -6 -5 -6 6 -1 11 2 17 5 13 3 -3 4 -12 1 -19z m-722 -59 c4 -10 14 -19
24 -19 25 0 44 -25 37 -47 -3 -10 -13 -94 -21 -188 -8 -93 -22 -233 -30 -310
-8 -77 -24 -240 -35 -362 -22 -244 -52 -439 -74 -481 -8 -15 -26 -38 -40 -51
-24 -23 -40 -26 -239 -42 -116 -10 -252 -23 -302 -28 -116 -14 -128 -14 -119
0 9 14 34 144 35 184 l2 30 8 -35 c6 -25 7 -13 5 45 -2 44 0 69 4 55 4 -17 9
3 14 65 4 50 12 108 16 131 5 22 12 96 14 165 3 68 11 149 17 179 6 30 11 63
11 72 -1 15 3 14 25 -6 53 -50 173 -65 318 -42 106 18 209 49 236 73 20 17 33
190 30 388 -1 71 1 162 5 202 l6 72 24 -15 c13 -9 26 -24 29 -35z m2782 19
c-3 -8 -6 -5 -6 6 -1 11 2 17 5 13 3 -3 4 -12 1 -19z m-3200 -35 c-3 -10 -5
-4 -5 12 0 17 2 24 5 18 2 -7 2 -21 0 -30z m-4370 21 c-3 -3 -12 -4 -19 -1 -8
3 -5 6 6 6 11 1 17 -2 13 -5z m-44 -11 c-7 -2 -21 -2 -30 0 -10 3 -4 5 12 5
17 0 24 -2 18 -5z m537 -7 c0 -3 -4 -8 -10 -11 -5 -3 -10 -1 -10 4 0 6 5 11
10 11 6 0 10 -2 10 -4z m7087 -33 c-3 -10 -5 -4 -5 12 0 17 2 24 5 18 2 -7 2
-21 0 -30z m-4267 2 c0 -8 -2 -15 -4 -15 -3 0 -87 -13 -188 -30 -101 -16 -244
-38 -318 -49 -74 -11 -200 -31 -280 -45 -80 -13 -203 -34 -275 -46 -244 -40
-332 -58 -295 -60 34 -2 34 -3 -15 -16 l-50 -14 60 5 c33 2 87 7 120 10 33 2
6 -4 -60 -15 -66 -11 -135 -19 -153 -20 -31 0 -33 2 -30 32 l3 32 85 13 c47 8
193 32 325 54 132 22 389 65 570 95 182 30 364 60 405 68 100 18 100 18 100 1z
m-3535 -1 c-5 -2 -75 -17 -155 -33 -80 -16 -203 -41 -273 -56 -71 -15 -131
-24 -134 -21 -3 3 0 7 8 10 15 4 263 55 419 85 86 17 160 25 135 15z m6880
-50 c195 -23 301 -41 249 -43 -66 -3 -173 -90 -230 -187 l-24 -41 -108 -6
c-59 -4 -197 -13 -307 -21 -110 -9 -279 -20 -375 -26 -96 -6 -199 -13 -227
-15 l-53 -5 0 32 c0 33 16 185 26 246 10 61 67 80 284 92 214 12 530 2 765
-26z m945 -45 c5 -35 13 -77 16 -94 4 -20 3 -27 -4 -20 -8 8 -32 140 -32 177
0 29 11 -5 20 -63z m-4367 34 c-7 -2 -21 -2 -30 0 -10 3 -4 5 12 5 17 0 24 -2
18 -5z m844 -293 c-3 -129 -10 -271 -15 -315 -6 -44 -20 -163 -32 -265 -37
-331 -64 -500 -85 -540 -13 -26 -18 -27 -157 -38 -248 -20 -342 -24 -358 -13
-20 14 -16 96 27 519 15 153 17 162 37 162 12 0 39 3 61 6 35 5 37 4 20 -7
-23 -14 -66 -56 -47 -45 6 4 12 2 12 -4 0 -8 21 -10 68 -6 37 2 92 5 122 5 30
1 61 5 68 10 15 9 37 101 47 201 8 77 3 84 -67 94 -44 7 -47 9 -50 39 l-3 32
-97 -2 c-70 -1 -98 2 -98 10 1 55 32 353 38 358 4 4 21 10 37 13 l30 7 -2 -98
c0 -54 1 -84 3 -68 2 17 9 55 16 85 7 30 13 62 13 70 0 9 10 15 25 15 20 0 26
-6 28 -27 4 -33 -1 -33 185 -10 76 10 141 14 143 10 12 -19 24 7 26 55 1 41 2
45 6 17 2 -19 2 -141 -1 -270z m-4067 287 c0 -2 -15 -14 -32 -27 l-33 -23 24
26 c21 23 41 35 41 24z m3063 -17 c-12 -5 -50 -12 -85 -16 -35 -4 -67 -9 -73
-12 -5 -3 -28 -5 -50 -4 -22 1 -33 -2 -25 -5 8 -4 -28 -12 -80 -19 -123 -16
-214 -29 -325 -48 -150 -24 -247 -38 -300 -42 -88 -6 -26 13 100 30 157 21
243 35 335 52 100 18 262 44 319 50 26 3 69 9 96 13 28 5 64 9 80 9 27 1 28 0
8 -8z m817 -10 c-8 -5 -28 -9 -45 -9 -30 2 -30 2 5 9 51 11 57 11 40 0z
m-4695 -20 c-8 -14 -53 -172 -79 -282 -46 -192 -88 -430 -141 -803 -19 -137
-39 -275 -44 -305 l-10 -55 4 60 c3 54 11 123 46 365 42 300 107 668 151 855
32 136 52 190 69 180 5 -4 7 -10 4 -15z m608 3 c-7 -2 -19 -2 -25 0 -7 3 -2 5
12 5 14 0 19 -2 13 -5z m5787 -13 c0 -11 -4 -20 -9 -20 -5 0 -7 9 -4 20 3 11
7 20 9 20 2 0 4 -9 4 -20z m1645 -27 c83 -19 186 -42 230 -50 44 -8 87 -18 95
-22 10 -6 19 -37 27 -97 11 -88 28 -203 78 -529 73 -477 94 -655 79 -655 -13
0 -258 66 -329 89 -58 18 -85 41 -49 41 27 0 284 84 284 93 0 16 -93 6 -167
-18 -126 -41 -211 -51 -288 -31 -90 23 -92 21 -49 -27 22 -24 63 -73 92 -108
97 -119 198 -189 346 -239 50 -16 101 -30 114 -30 12 0 22 -4 22 -9 0 -13 -99
-3 -191 19 -106 25 -191 70 -402 211 -260 173 -433 256 -683 324 -204 56 -311
69 -524 62 -102 -4 -232 -13 -290 -21 -149 -22 -140 -24 -140 29 0 47 35 462
48 570 l7 60 105 6 c58 3 236 16 395 28 357 26 558 39 566 35 3 -2 2 -25 -2
-51 -13 -84 21 -242 77 -353 52 -105 158 -190 236 -190 45 0 122 50 160 105
71 101 106 313 79 469 -7 38 -10 70 -7 73 7 8 89 -33 113 -56 50 -48 58 -77
58 -226 0 -77 -4 -167 -8 -200 -12 -88 11 -45 29 53 32 180 4 378 -60 431 -9
8 -44 24 -79 36 -58 21 -64 25 -94 82 -18 33 -53 79 -79 103 l-46 43 48 -8
c27 -3 117 -22 199 -42z m-3743 12 c-2 -14 -6 -25 -8 -25 -2 0 -4 11 -4 25 0
14 4 25 9 25 4 0 6 -11 3 -25z m255 19 c-3 -3 -12 -4 -19 -1 -8 3 -5 6 6 6 11
1 17 -2 13 -5z m178 -4 c3 -5 -1 -10 -9 -10 -8 0 -18 5 -21 10 -3 6 1 10 9 10
8 0 18 -4 21 -10z m-4000 -95 c-13 -49 -24 -79 -24 -66 -1 23 26 138 36 154
12 20 9 -4 -12 -88z m3068 88 c-7 -2 -21 -2 -30 0 -10 3 -4 5 12 5 17 0 24 -2
18 -5z m-86 -9 c-3 -3 -12 -4 -19 -1 -8 3 -5 6 6 6 11 1 17 -2 13 -5z m376
-20 c3 -3 2 -17 -4 -30 -8 -22 -28 -164 -46 -321 -6 -52 -7 -53 -39 -54 -19
-1 -40 -2 -46 -3 -7 -1 -14 8 -16 19 -7 44 -45 131 -65 153 -18 19 -28 22 -56
17 -73 -14 -311 -94 -491 -166 -99 -40 -256 -89 -289 -90 -18 -1 -14 -4 14 -8
33 -5 20 -9 -75 -19 -236 -27 -276 -31 -322 -38 l-47 -7 5 59 c9 101 25 238
30 261 8 29 20 33 144 48 58 7 218 29 355 49 138 20 329 48 425 62 96 14 247
35 335 48 194 29 180 27 188 20z m-1518 -69 c-3 -31 -9 -54 -12 -51 -3 3 -2
30 2 61 3 31 9 54 12 51 3 -3 2 -30 -2 -61z m942 59 c-3 -3 -12 -4 -19 -1 -8
3 -5 6 6 6 11 1 17 -2 13 -5z m4221 -1 c-46 -89 -50 -108 -49 -198 2 -203 86
-375 183 -375 l38 0 -15 -36 c-33 -80 -91 -124 -162 -124 -21 1 -49 7 -63 16
l-25 15 25 -6 25 -6 -25 18 c-104 74 -153 157 -172 291 -10 67 -9 89 5 148 24
95 53 150 112 211 44 46 56 53 89 53 21 0 36 -3 34 -7z m-7583 -13 c-3 -5 -12
-10 -18 -10 -7 0 -6 4 3 10 19 12 23 12 15 0z m3290 0 c-11 -5 -29 -8 -40 -8
-16 0 -15 2 5 8 34 11 60 11 35 0z m-2408 -47 c-3 -10 -5 -4 -5 12 0 17 2 24
5 18 2 -7 2 -21 0 -30z m2280 31 c-3 -3 -12 -4 -19 -1 -8 3 -5 6 6 6 11 1 17
-2 13 -5z m-59 -11 c-10 -2 -26 -2 -35 0 -10 3 -2 5 17 5 19 0 27 -2 18 -5z
m3117 -90 c-4 -35 -9 -62 -12 -59 -3 2 -2 38 2 78 5 40 10 67 13 60 2 -8 1
-43 -3 -79z m1425 78 c0 -6 -5 -13 -11 -17 -6 -3 -20 -26 -31 -51 -11 -25 -24
-41 -30 -37 -14 9 -3 72 18 95 18 20 54 26 54 10z m867 -3 c405 10 596 -146
694 -568 30 -126 58 -321 64 -440 3 -58 8 -145 11 -193 l5 -88 -38 -46 c-75
-91 -144 -116 -445 -157 -100 -14 -186 -30 -192 -36 -35 -35 -60 39 -33 96 18
36 104 109 155 131 47 20 39 23 -17 6 -27 -8 -76 -13 -108 -11 l-58 3 -11 85
c-6 47 -10 87 -7 89 8 10 82 -25 160 -75 98 -63 143 -87 150 -80 7 7 -65 57
-175 122 -161 94 -143 64 -168 270 -13 98 -32 229 -43 289 -29 154 -96 633
-85 610 2 -6 56 -9 141 -7z m-8564 -13 c-3 -9 -8 -14 -10 -11 -3 3 -2 9 2 15
9 16 15 13 8 -4z m2970 -2 c-7 -2 -19 -2 -25 0 -7 3 -2 5 12 5 14 0 19 -2 13
-5z m5386 -170 c1 -18 5 -33 10 -33 13 0 23 -113 12 -141 -9 -22 -10 -20 -11
16 -1 22 -4 54 -6 70 -23 146 -34 232 -33 249 2 28 28 -120 28 -161z m-7255
118 c-4 -23 -9 -40 -11 -37 -3 3 -2 23 2 46 4 23 9 39 11 37 3 -2 2 -23 -2
-46z m1164 27 c-3 -7 -67 -25 -144 -40 -76 -16 -193 -40 -259 -53 -66 -14
-132 -25 -147 -25 -30 0 -50 -19 -21 -21 13 -1 11 -3 -7 -10 -25 -9 43 -5 140
8 25 3 42 3 39 -1 -6 -6 -145 -26 -443 -61 -133 -16 -184 -14 -197 7 -4 6 -26
6 -65 -1 -37 -7 -61 -8 -68 -1 -6 6 -4 11 5 14 8 3 172 28 364 55 193 28 449
70 570 95 257 52 238 49 233 34z m8022 -270 c0 -144 -3 -259 -6 -255 -9 9 -10
526 -1 520 4 -2 7 -122 7 -265z m-9373 210 c-3 -8 -6 -5 -6 6 -1 11 2 17 5 13
3 -3 4 -12 1 -19z m1313 12 c0 -5 -12 -10 -27 -9 -25 0 -26 1 -8 9 27 12 35
12 35 0z m-85 -20 c-3 -5 -18 -10 -33 -10 -21 0 -24 2 -12 10 20 13 53 13 45
0z m-102 -17 c-7 -2 -21 -2 -30 0 -10 3 -4 5 12 5 17 0 24 -2 18 -5z m160 0
c-7 -2 -19 -2 -25 0 -7 3 -2 5 12 5 14 0 19 -2 13 -5z m5132 -22 c-3 -12 -16
-23 -28 -26 -12 -2 -139 -11 -282 -20 -320 -19 -502 -32 -622 -44 -109 -11
-137 -7 -123 19 8 14 27 19 97 24 49 3 187 13 308 21 398 27 640 46 644 51 9
9 13 -5 6 -25z m-6765 -182 c-18 -101 -33 -186 -36 -188 -9 -9 -3 67 10 124 7
33 22 107 32 164 10 57 20 99 21 94 2 -6 -10 -93 -27 -194z m1550 190 c-78
-14 -145 -22 -139 -16 7 9 105 25 149 25 32 0 31 -1 -10 -9z m-1802 -21 c55
-7 92 -17 92 -24 0 -10 -32 -218 -101 -649 -16 -104 -41 -271 -54 -371 -40
-309 -52 -350 -102 -373 -13 -6 -80 -10 -161 -8 -156 2 -172 8 -172 63 0 84
177 1178 211 1309 21 77 21 77 112 71 45 -3 124 -11 175 -18z m7662 0 c0 -6
-6 -5 -15 2 -8 7 -15 14 -15 16 0 2 7 1 15 -2 8 -4 15 -11 15 -16z m-6030 -8
c-8 -5 -26 -9 -40 -9 -23 0 -23 1 -5 9 11 5 29 9 40 9 17 1 17 -1 5 -9z m6054
-16 c3 -8 2 -12 -4 -9 -6 3 -10 10 -10 16 0 14 7 11 14 -7z m-7108 -40 c-3 -9
-11 -12 -18 -8 -6 4 -32 6 -57 5 -68 -3 -141 9 -135 22 5 13 164 17 164 5 0
-16 31 -7 38 10 6 16 7 16 10 -1 2 -10 1 -25 -2 -33z m1348 21 c-3 -14 -10
-49 -14 -78 -7 -48 -15 -32 -10 22 1 20 -2 23 -19 18 -29 -7 -26 1 4 13 14 5
25 15 25 21 0 14 -60 7 -199 -22 -52 -10 -108 -19 -125 -20 -17 0 -40 -4 -51
-8 -27 -11 130 -3 174 9 21 6 40 6 50 0 12 -7 6 -10 -24 -11 -22 -1 -32 -3
-22 -6 23 -6 12 -23 -15 -23 -12 0 -18 -3 -15 -6 4 -4 34 -1 67 6 66 14 83 8
74 -26 -7 -25 -65 -45 -109 -38 l-30 5 33 -17 c18 -9 42 -31 54 -48 12 -17 26
-34 31 -37 5 -3 7 -15 5 -25 -2 -16 2 -19 32 -16 19 1 38 8 42 15 5 8 8 4 8
-10 0 -19 -5 -23 -34 -23 -19 0 -42 -3 -51 -6 -11 -5 -16 -2 -15 7 6 38 -3 61
-33 91 -28 28 -45 35 -108 45 -41 6 -81 11 -89 11 -72 0 -583 25 -610 31 -32
7 -28 8 35 15 39 4 149 18 245 32 96 13 195 26 220 29 25 3 65 10 90 15 81 17
267 46 378 59 8 1 10 -7 6 -24z m203 -17 c-3 -8 -6 -5 -6 6 -1 11 2 17 5 13 3
-3 4 -12 1 -19z m1321 6 c13 -9 22 -23 20 -32 -1 -10 2 -23 6 -31 5 -8 10 -27
11 -42 2 -34 17 -31 -435 -75 -85 -8 -195 -19 -244 -25 -49 -5 -90 -8 -92 -6
-4 4 368 128 506 168 41 13 100 31 130 40 68 23 70 23 98 3z m-1477 -89 c-9
-38 -9 -38 -10 -9 -1 17 2 47 6 65 7 30 8 31 11 9 1 -14 -1 -43 -7 -65z
m-1405 32 c1 -1 -15 -79 -35 -172 -21 -94 -42 -185 -45 -202 -4 -18 -13 -33
-21 -33 -23 0 -36 -54 -33 -141 3 -78 4 -84 26 -87 28 -4 28 -8 -3 -73 -41
-91 -53 -158 -81 -477 -5 -61 -10 -75 -31 -92 -38 -30 -93 -26 -118 7 -29 41
-29 112 -1 378 30 275 29 268 16 260 -13 -8 -13 -12 10 121 11 63 29 167 40
232 35 199 53 287 61 292 7 5 210 -7 215 -13z m277 16 c-7 -2 -19 -2 -25 0 -7
3 -2 5 12 5 14 0 19 -2 13 -5z m65 -10 c-10 -2 -26 -2 -35 0 -10 3 -2 5 17 5
19 0 27 -2 18 -5z m6119 -15 c-3 -8 -6 -5 -6 6 -1 11 2 17 5 13 3 -3 4 -12 1
-19z m-6190 6 c-3 -3 -12 -4 -19 -1 -8 3 -5 6 6 6 11 1 17 -2 13 -5z m1040
-10 c-3 -3 -12 -4 -19 -1 -8 3 -5 6 6 6 11 1 17 -2 13 -5z m-1156 -126 c-26
-182 -29 -197 -30 -155 -1 45 29 250 36 243 3 -3 0 -42 -6 -88z m3327 60 c-3
-7 -11 -44 -19 -82 -10 -52 -18 -70 -34 -76 -11 -4 -105 -17 -210 -30 -104
-12 -193 -25 -196 -29 -4 -3 -12 -58 -17 -121 -6 -63 -23 -253 -38 -422 l-28
-308 -25 0 c-27 0 -134 23 -188 41 -17 5 -34 17 -37 25 -3 8 -1 90 4 182 6 91
7 169 3 173 -11 10 -242 34 -249 26 -4 -3 -15 -93 -25 -199 -10 -106 -21 -199
-24 -205 -6 -16 -286 -18 -301 -3 -10 10 2 166 25 306 10 68 8 76 -22 70 -12
-3 -62 -10 -110 -17 -97 -14 -102 -18 -106 -84 -7 -141 -20 -317 -24 -321 -3
-3 -47 -6 -99 -7 -102 -2 -131 8 -164 58 -15 23 -15 40 1 217 9 106 18 200 21
209 5 17 33 29 70 29 19 0 23 7 28 53 5 45 9 160 7 193 -1 13 -130 7 -145 -6
-5 -5 -14 -82 -22 -172 -7 -90 -20 -235 -29 -323 -9 -88 -17 -187 -18 -220
l-2 -60 -80 -12 c-44 -6 -92 -12 -106 -12 -29 -1 -29 -20 -5 247 6 73 9 137 6
141 -3 5 -47 -2 -99 -15 -51 -12 -138 -31 -192 -41 -55 -10 -99 -22 -99 -28 2
-38 31 -142 47 -164 31 -42 80 -61 155 -61 37 0 69 -4 72 -8 9 -15 -24 -52
-64 -72 -52 -27 -179 -28 -229 -2 -53 27 -69 58 -96 186 -26 127 -38 149 -91
166 -37 12 -48 35 -38 74 9 36 32 46 101 46 36 0 67 6 80 15 29 20 59 104 67
188 6 57 4 68 -10 74 -9 3 -73 0 -143 -8 l-126 -14 -11 -120 c-28 -298 -67
-661 -73 -667 -3 -3 -42 -9 -85 -13 l-79 -8 6 117 c3 64 3 116 1 116 -2 0 -32
-16 -66 -35 -35 -19 -91 -41 -125 -50 -118 -30 -239 14 -298 109 -28 46 -30
57 -30 140 0 75 4 99 23 139 31 61 92 121 156 151 65 31 198 56 310 59 83 2
107 12 91 37 -6 10 -25 8 -295 -30 -299 -42 -265 -44 -268 16 -1 32 2 55 10
62 7 6 184 33 393 61 476 63 489 64 895 101 184 17 495 46 690 65 195 19 425
42 510 50 85 8 252 24 370 36 118 11 312 33 430 49 258 33 274 34 268 18z
m-2933 -18 c215 -15 578 -61 601 -76 25 -15 38 -65 21 -76 -7 -4 -32 -8 -57
-8 -62 -1 -248 -23 -775 -95 -49 -6 -93 -9 -97 -6 -9 8 7 245 17 261 8 13 111
13 290 0z m6974 -112 c1 -16 -3 -28 -8 -28 -12 0 -22 99 -13 130 5 21 8 17 13
-25 4 -27 8 -62 8 -77z m-6195 58 c-3 -15 -8 -25 -11 -23 -2 3 -1 17 3 31 3
15 8 25 11 23 2 -3 1 -17 -3 -31z m63 -28 c-2 -13 -4 -5 -4 17 -1 22 1 32 4
23 2 -10 2 -28 0 -40z m-2454 -171 c-3 -27 -9 -45 -14 -40 -4 4 -3 27 3 51 14
54 18 50 11 -11z m4552 23 c-11 -5 -31 -8 -45 -8 l-25 0 25 8 c14 4 34 8 45 8
l20 1 -20 -9z m5715 -20 c8 -5 10 -10 4 -10 -7 0 -22 9 -35 21 -19 16 -20 18
-4 10 11 -6 27 -15 35 -21z m192 -2 c-7 -7 -12 -8 -12 -2 0 14 12 26 19 19 2
-3 -1 -11 -7 -17z m-9276 -25 c-11 -11 -17 4 -9 23 7 18 8 18 11 1 2 -10 1
-21 -2 -24z m9249 7 c-3 -5 -12 -10 -18 -10 -7 0 -6 4 3 10 19 12 23 12 15 0z
m-9345 -10 c0 -5 -5 -10 -11 -10 -5 0 -7 5 -4 10 3 6 8 10 11 10 2 0 4 -4 4
-10z m9293 3 c-7 -2 -21 -2 -30 0 -10 3 -4 5 12 5 17 0 24 -2 18 -5z m-2423
-8 c0 -12 -64 -75 -76 -75 -8 0 -14 -5 -14 -11 0 -6 -9 -9 -20 -6 -10 3 -20 2
-22 -2 -7 -18 -88 2 -122 31 -21 17 -35 33 -31 36 3 3 15 -4 28 -16 13 -12 45
-26 73 -31 57 -11 112 8 154 52 26 27 30 31 30 22z m-6038 -197 c-6 -73 -13
-82 -61 -83 -23 0 -41 3 -41 8 0 4 18 7 40 7 39 0 40 1 40 33 0 55 -39 78 -95
56 -5 -2 -11 1 -13 6 -3 11 42 22 99 24 l36 1 -5 -52z m-91 -11 c-8 -8 -11 -7
-11 4 0 20 13 34 18 19 3 -7 -1 -17 -7 -23z m55 9 c7 -19 -15 -61 -26 -50 -11
11 -1 64 11 64 6 0 12 -6 15 -14z m-86 -61 c0 -14 -4 -25 -10 -25 -5 0 -10 11
-10 25 0 14 5 25 10 25 6 0 10 -11 10 -25z m-1073 -57 c-3 -7 -5 -2 -5 12 0
14 2 19 5 13 2 -7 2 -19 0 -25z m6338 -9 c202 -24 490 -117 683 -220 42 -22
140 -82 217 -133 178 -118 201 -132 272 -162 l58 -25 -75 6 c-138 11 -484 46
-590 60 -259 34 -289 39 -284 47 3 4 24 5 47 2 31 -4 38 -3 27 5 -8 6 -25 11
-37 11 -12 0 -25 5 -28 10 -3 6 -14 10 -23 10 -9 0 -26 8 -37 17 -16 12 -16
14 -3 10 18 -6 35 8 21 16 -5 3 -26 8 -48 12 -22 3 -62 11 -90 17 -27 5 -86
14 -130 18 -279 29 -294 32 -274 56 8 9 33 14 75 14 l64 0 0 45 c0 35 4 45 16
45 14 0 15 7 10 43 -7 43 -6 44 26 54 l33 11 -47 1 c-27 1 -48 -3 -48 -9 0 -5
-10 -10 -22 -10 -30 0 -12 16 32 29 32 10 30 10 -20 5 -30 -3 -68 -7 -85 -10
-23 -4 -26 -3 -15 5 11 8 3 11 -32 11 -32 0 -48 -4 -49 -12 0 -10 -2 -10 -6 0
-2 6 -14 13 -26 14 -34 3 118 14 213 16 47 1 126 -3 175 -9z m-442 -16 c-7 -2
-21 -2 -30 0 -10 3 -4 5 12 5 17 0 24 -2 18 -5z m-73 -13 c-8 -5 -33 -9 -55
-9 -31 0 -36 2 -20 9 29 13 94 13 75 0z m3388 -55 l1 -20 -9 20 c-5 11 -8 31
-8 45 l0 25 8 -25 c4 -14 8 -34 8 -45z m-9221 23 c-3 -8 -6 -5 -6 6 -1 11 2
17 5 13 3 -3 4 -12 1 -19z m5684 -20 l-4 -43 -8 35 c-7 34 -4 50 9 50 4 0 6
-19 3 -42z m297 -55 c-2 -39 -23 -44 -32 -8 -7 29 14 71 26 52 4 -7 7 -27 6
-44z m112 21 c0 -10 -12 -14 -45 -14 -25 0 -45 5 -45 10 0 6 16 10 35 10 19 0
35 5 35 11 0 5 5 7 10 4 6 -3 10 -13 10 -21z m-6103 -16 c-3 -7 -5 -2 -5 12 0
14 2 19 5 13 2 -7 2 -19 0 -25z m2958 12 c22 5 44 10 49 10 4 0 5 -69 2 -154
-6 -175 -10 -164 81 -200 107 -41 68 -58 -157 -66 -36 -2 -92 -6 -125 -11 -33
-4 -152 -13 -265 -19 -299 -17 -781 -49 -885 -59 -98 -10 -306 -26 -535 -42
-80 -5 -188 -14 -240 -18 -121 -11 -400 -13 -400 -3 0 4 64 7 143 8 78 0 225
8 327 17 102 9 250 21 330 27 80 7 189 18 242 26 54 8 127 14 163 14 35 0 109
5 165 11 l100 12 6 39 c6 35 8 37 23 24 9 -8 39 -24 66 -36 45 -20 61 -22 160
-16 61 4 139 9 175 13 64 7 64 7 25 14 -22 4 -59 4 -83 -1 -36 -6 -42 -5 -38
7 10 26 17 84 25 215 4 70 10 130 12 133 3 2 22 2 43 -2 l38 -6 -7 -116 c-7
-121 1 -171 29 -171 25 0 126 -34 126 -42 0 -4 -17 -10 -37 -13 -74 -12 -66
-14 42 -10 169 7 249 16 234 26 -11 7 -10 9 4 9 9 0 17 -4 17 -10 0 -5 6 -10
13 -10 9 0 14 20 15 68 2 37 7 83 11 102 5 19 12 77 16 129 8 117 12 127 34
107 13 -12 25 -13 56 -6z m6314 -215 c5 -33 17 -109 26 -170 8 -60 27 -181 42
-268 28 -174 24 -225 -19 -248 -29 -15 -141 -7 -338 25 -258 43 -697 94 -985
116 -77 6 -205 17 -285 25 -184 19 -453 42 -640 55 -80 6 -188 14 -240 20 -52
5 -176 12 -275 15 -99 3 -205 7 -235 10 -30 2 -143 9 -250 16 -107 6 -231 17
-274 24 -154 27 -298 124 -355 240 -17 36 -31 73 -30 82 0 16 1 15 9 -2 15
-37 94 -104 153 -130 85 -37 185 -51 649 -90 230 -19 450 -40 490 -45 154 -21
477 -51 808 -75 190 -14 431 -32 535 -40 105 -9 227 -18 273 -22 45 -3 85 -10
88 -15 6 -9 -168 -4 -396 12 -671 48 -896 61 -1170 70 -173 6 -400 15 -505 20
-104 5 -242 9 -305 8 l-115 -1 120 -12 c66 -7 172 -15 235 -18 63 -3 270 -16
460 -28 190 -12 396 -22 458 -22 61 -1 112 -4 112 -8 0 -4 16 -5 35 -2 23 4
35 2 35 -6 0 -6 12 -11 26 -11 16 0 23 4 18 11 -5 9 6 9 42 3 27 -5 69 -8 94
-7 29 2 40 -1 31 -6 -17 -11 34 -16 309 -31 221 -12 386 -27 445 -40 22 -6
105 -17 185 -25 80 -8 170 -20 200 -26 113 -21 486 -79 508 -79 35 0 70 28 83
67 13 39 6 100 -57 552 -19 135 -33 252 -33 260 1 15 19 -80 38 -204z m-3582
148 c-3 -10 -5 -2 -5 17 0 19 2 27 5 18 2 -10 2 -26 0 -35z m-31 -98 c18 -27
62 -62 104 -82 25 -12 25 -12 -5 -6 -38 7 -96 52 -114 88 -7 15 -15 46 -17 69
l-3 41 9 -42 c5 -23 16 -53 26 -68z m-4540 -15 c32 -149 60 -210 112 -245 20
-14 30 -25 22 -25 -43 -1 -197 -11 -212 -14 -11 -3 -18 2 -18 11 0 32 21 310
26 339 4 30 6 31 29 20 20 -9 28 -24 41 -86z m480 78 c-4 -13 -10 -51 -13 -85
l-6 -63 -60 0 c-49 0 -66 5 -93 25 -27 21 -64 91 -52 99 3 2 204 43 222 45 4
1 5 -9 2 -21z m4114 -7 c0 -5 3 -18 7 -28 6 -16 5 -16 -10 -4 -19 15 -23 41
-7 41 6 0 10 -4 10 -9z m290 -1 c0 -5 -15 -10 -32 -9 -31 1 -32 1 -8 9 35 11
40 11 40 0z m-6233 -37 c-3 -10 -5 -4 -5 12 0 17 2 24 5 18 2 -7 2 -21 0 -30z
m5983 -13 c0 -5 -2 -10 -4 -10 -3 0 -8 5 -11 10 -3 6 -1 10 4 10 6 0 11 -4 11
-10z m-353 -67 c-3 -10 -5 -2 -5 17 0 19 2 27 5 18 2 -10 2 -26 0 -35z m550
11 c-3 -3 -12 -4 -19 -1 -8 3 -5 6 6 6 11 1 17 -2 13 -5z m416 -1 c-7 -2 -19
-2 -25 0 -7 3 -2 5 12 5 14 0 19 -2 13 -5z m187 -23 c0 -5 -19 -9 -42 -9 -40
1 -41 2 -13 9 44 11 55 11 55 0z m-7453 -72 c-4 -35 -14 -160 -22 -278 -8
-118 -22 -305 -31 -415 -13 -155 -15 -279 -11 -547 2 -197 1 -348 -4 -348 -5
0 -9 44 -10 98 -1 53 -2 185 -4 292 -1 107 1 263 6 345 13 261 56 828 65 883
10 55 17 35 11 -30z m7121 55 c-10 -2 -26 -2 -35 0 -10 3 -2 5 17 5 19 0 27
-2 18 -5z m102 -13 c12 -8 10 -10 -10 -10 -14 0 -32 5 -40 10 -12 8 -10 10 10
10 14 0 32 -5 40 -10z m-6060 -12 c0 -7 -5 -20 -10 -28 -8 -12 -10 -9 -10 13
0 15 5 27 10 27 6 0 10 -6 10 -12z m5756 -13 c179 -27 231 -37 149 -30 -56 5
-325 44 -340 50 -26 9 36 3 191 -20z m-6269 -17 c-3 -7 -5 -2 -5 12 0 14 2 19
5 13 2 -7 2 -19 0 -25z m6701 25 c-15 -2 -42 -2 -60 0 -18 2 -6 4 27 4 33 0
48 -2 33 -4z m169 -16 c9 -10 -67 -7 -97 3 -18 6 -9 8 33 6 31 -2 60 -6 64 -9z
m-1279 -187 c50 -82 142 -188 164 -189 10 -1 15 -7 12 -14 -4 -10 7 -14 39
-14 25 -1 54 -6 65 -12 12 -6 30 -11 42 -11 13 0 19 -4 14 -11 -5 -9 1 -10 22
-3 16 4 103 7 194 5 291 -4 640 -46 640 -77 0 -8 6 -14 13 -14 6 0 48 -24 91
-53 44 -28 88 -57 98 -63 18 -11 17 -12 -6 -27 -15 -10 -27 -13 -31 -7 -3 6 1
10 9 10 9 0 16 5 16 10 0 6 -5 10 -11 10 -6 0 -19 10 -29 23 -10 12 -22 19
-26 15 -4 -5 1 -17 11 -28 10 -11 15 -23 11 -28 -4 -4 -14 1 -21 12 -9 12 -21
17 -36 13 -11 -3 -32 -1 -46 4 -14 5 -30 6 -36 2 -7 -4 -21 -6 -33 -5 -14 2
-24 -5 -32 -23 -11 -23 -10 -26 5 -24 32 3 36 -1 22 -18 -11 -13 -11 -17 -1
-20 6 -3 12 -11 12 -19 0 -8 5 -13 11 -11 6 1 13 -9 15 -22 5 -29 23 -53 34
-46 17 11 36 -206 22 -255 -8 -30 -10 -23 -10 50 0 83 -26 210 -42 210 -5 0
-20 21 -35 46 -35 60 -129 128 -212 154 -79 24 -179 26 -254 4 -70 -21 -152
-101 -169 -166 -16 -57 -7 -144 20 -199 12 -24 23 -54 24 -65 7 -51 115 -146
216 -192 25 -11 68 -30 95 -42 37 -17 70 -23 127 -24 42 -1 80 -4 84 -8 4 -5
13 -8 21 -8 17 0 17 30 1 31 -7 0 -4 4 7 8 11 4 27 6 37 3 16 -4 16 -5 1 -21
-15 -15 -15 -16 0 -19 9 -2 17 -13 17 -24 0 -15 5 -19 20 -15 11 3 17 1 14 -4
-3 -6 -1 -15 4 -22 5 -7 12 -24 14 -40 5 -23 2 -27 -13 -22 -11 4 -19 2 -19
-5 0 -6 -4 -8 -10 -5 -5 3 -10 15 -10 26 0 10 -4 19 -10 19 -5 0 -10 -6 -10
-14 0 -8 -3 -22 -6 -31 -5 -11 0 -18 15 -22 11 -3 18 -9 15 -14 -7 -12 -61
-11 -69 1 -10 17 -35 11 -35 -8 0 -17 -5 -18 -47 -9 -77 15 -203 20 -203 8 0
-7 24 -11 59 -11 66 0 161 -19 161 -32 0 -8 -35 -2 -78 13 -70 26 -282 -9
-414 -68 -91 -40 -143 -77 -225 -160 -40 -39 -73 -68 -73 -63 0 5 10 20 23 33
12 13 31 34 43 48 26 30 51 50 92 75 18 10 32 22 32 26 0 11 136 78 160 78 11
0 20 5 20 10 0 13 -5 13 -65 -4 -108 -29 -267 -118 -433 -243 -46 -35 -87 -63
-92 -63 -15 0 -40 31 -40 51 0 10 23 53 52 96 62 93 103 206 125 352 32 205
-14 522 -121 843 -68 203 -102 316 -120 394 -7 33 -18 70 -25 81 -8 16 -8 22
2 26 7 2 18 -17 29 -52 9 -31 35 -85 56 -121z m-5381 148 c-3 -8 -6 -5 -6 6
-1 11 2 17 5 13 3 -3 4 -12 1 -19z m5259 14 c-3 -5 -31 -9 -63 -9 -46 -1 -52
1 -28 7 42 11 97 12 91 2z m1198 -22 c81 -11 156 -20 165 -21 10 0 11 -3 4 -6
-12 -4 -354 36 -362 43 -9 8 48 3 193 -16z m-6169 -77 c-4 -30 -9 -52 -12 -50
-2 3 -1 36 3 74 4 37 10 60 12 49 2 -10 1 -43 -3 -73z m4813 82 c-3 -3 -52
-10 -109 -15 -57 -5 -171 -16 -254 -24 -147 -14 -287 -23 -515 -31 -322 -12
-430 -18 -430 -27 0 -5 4 -7 9 -4 4 3 212 12 462 21 426 14 679 28 776 40 47
7 52 2 46 -41 l-5 -30 -256 -12 c-540 -27 -820 -43 -1212 -72 -863 -63 -1460
-98 -2065 -120 -497 -18 -576 -21 -860 -35 -312 -16 -875 -22 -875 -10 0 5 24
9 52 10 29 2 91 7 138 14 107 14 173 14 165 1 -4 -6 34 -10 106 -10 62 0 109
3 106 6 -3 4 -50 6 -104 5 -136 -3 -111 18 33 28 80 6 93 8 48 10 -33 0 -130
-3 -215 -9 -268 -16 -329 -18 -329 -10 0 5 19 11 42 14 55 6 629 33 1008 46
344 13 822 39 829 46 3 3 -1 9 -9 14 -11 7 -6 10 20 10 19 0 114 5 210 10 96
6 306 17 465 25 160 8 448 24 640 35 193 11 546 29 785 40 467 22 807 43 1040
64 159 15 266 19 258 11z m-5201 -112 c-3 -10 -5 -4 -5 12 0 17 2 24 5 18 2
-7 2 -21 0 -30z m6766 30 c-7 -2 -19 -2 -25 0 -7 3 -2 5 12 5 14 0 19 -2 13
-5z m-6927 -57 c-21 -40 -71 -70 -106 -63 l-25 4 26 2 c30 1 109 65 109 88 0
9 3 13 7 9 4 -4 -1 -22 -11 -40z m5381 -13 c-3 -10 -5 -4 -5 12 0 17 2 24 5
18 2 -7 2 -21 0 -30z m-4853 -20 c-4 -10 -8 -27 -8 -38 -1 -16 -9 -21 -41 -23
l-40 -3 37 27 c21 15 40 36 44 46 3 11 8 17 11 14 3 -3 2 -13 -3 -23z m4225
-29 c2 -2 -8 -4 -22 -4 -30 0 -36 -14 -11 -24 19 -7 293 -6 476 3 l136 6 -5
-115 c-3 -63 -7 -117 -9 -119 -2 -2 -4 36 -4 85 0 123 -3 131 -46 126 -31 -4
-34 -7 -34 -39 0 -30 -3 -35 -20 -30 -12 3 -18 1 -14 -5 4 -5 1 -37 -6 -70 -9
-42 -19 -62 -31 -65 -12 -4 -19 -19 -24 -54 -4 -27 -11 -49 -16 -49 -5 0 -9
-7 -9 -15 0 -8 -4 -15 -10 -15 -5 0 -10 -6 -10 -14 0 -7 -7 -19 -15 -26 -8 -7
-15 -21 -15 -31 0 -10 -9 -21 -20 -24 -11 -3 -20 -15 -20 -25 0 -21 -41 -70
-58 -70 -5 0 -15 -14 -21 -32 -10 -29 -12 -30 -29 -15 -26 24 -41 21 -54 -8
-13 -30 -28 -16 -28 27 0 15 -4 30 -10 33 -5 3 -10 33 -10 65 0 32 -5 62 -11
65 -17 11 -23 -3 -9 -20 9 -11 11 -34 5 -88 -4 -39 -9 -91 -11 -114 -5 -55
-22 -99 -33 -87 -5 5 -18 25 -28 45 l-19 37 -12 -27 c-11 -26 -15 -27 -72 -23
l-60 4 0 -36 0 -36 -85 0 c-50 0 -85 4 -85 10 0 6 15 10 33 10 29 1 30 2 15
14 -15 11 -18 29 -18 100 0 70 -3 86 -15 86 -11 0 -15 12 -15 44 0 47 11 62
50 69 14 3 -1 3 -34 1 -51 -3 -57 -2 -46 11 11 13 7 15 -28 15 -35 0 -41 -3
-46 -26 -4 -14 -4 -34 -1 -44 3 -10 -1 -25 -10 -33 -8 -9 -15 -32 -15 -52 0
-26 -9 -48 -30 -75 -16 -21 -30 -42 -30 -47 0 -5 -9 -15 -20 -23 -19 -14 -19
-15 -3 -22 16 -6 16 -7 -2 -7 -24 -1 -98 -59 -90 -71 3 -4 -2 -11 -11 -14 -9
-4 -13 -2 -8 5 4 7 1 10 -7 7 -8 -3 -13 -12 -13 -21 1 -11 -12 -17 -48 -22
-58 -8 -72 -1 -32 17 78 34 178 112 232 182 25 31 53 128 60 205 l7 76 35 -3
c19 -1 129 -11 244 -22 116 -11 211 -18 211 -17 1 1 7 79 13 172 l12 170 -23
17 c-12 10 -27 18 -32 18 -11 0 -75 55 -75 64 0 6 92 -4 99 -10z m628 -76 c-2
-18 -4 -4 -4 32 0 36 2 50 4 33 2 -18 2 -48 0 -65z m-3560 76 c-3 -3 -12 -4
-19 -1 -8 3 -5 6 6 6 11 1 17 -2 13 -5z m40 0 c-3 -3 -12 -4 -19 -1 -8 3 -5 6
6 6 11 1 17 -2 13 -5z m-1090 -10 c-3 -3 -12 -4 -19 -1 -8 3 -5 6 6 6 11 1 17
-2 13 -5z m-52 -14 c8 -13 -5 -13 -25 0 -13 8 -13 10 2 10 9 0 20 -4 23 -10z
m3880 -99 c-4 -53 -9 -98 -10 -99 -2 -2 -123 -3 -269 -2 l-266 1 1 -103 c2
-166 -17 -225 -99 -307 -53 -52 -176 -121 -216 -121 l-27 0 60 -118 c102 -200
169 -252 335 -260 l98 -5 -5 -38 c-8 -58 -43 -122 -78 -143 -22 -13 -59 -20
-119 -24 -189 -10 -319 76 -478 318 -41 63 -91 140 -111 170 -31 47 -47 60
-110 91 -88 43 -103 59 -91 100 15 51 50 100 69 95 50 -15 182 -27 225 -21 91
12 166 68 205 155 36 80 20 170 -35 190 -14 6 -122 10 -239 10 -214 0 -215 0
-220 -22 -2 -13 -14 -70 -25 -128 -12 -58 -32 -129 -47 -159 -36 -75 -117
-152 -205 -196 -72 -35 -201 -74 -245 -75 -13 0 -23 -2 -23 -4 0 -2 21 -34 46
-72 54 -82 108 -140 148 -161 42 -22 123 -12 174 22 55 37 66 27 59 -51 -7
-76 -23 -109 -75 -156 -53 -48 -99 -61 -186 -56 -183 12 -290 125 -347 369
l-23 96 -46 21 c-89 41 -106 74 -79 151 11 31 11 31 82 31 86 0 139 25 171 80
28 48 29 150 1 205 l-20 40 -142 3 c-79 1 -143 1 -143 -2 0 -2 7 -20 15 -39
29 -69 14 -155 -37 -218 -31 -37 -130 -108 -174 -124 -27 -10 -51 -20 -53 -21
-9 -7 97 -203 148 -274 56 -77 156 -160 193 -160 23 0 23 -3 -7 -50 -39 -61
-65 -74 -137 -66 -124 13 -230 89 -295 212 -60 115 -133 328 -133 393 0 30 2
33 23 26 54 -17 69 -16 111 5 87 42 145 166 113 242 -27 64 -47 73 -156 70
-134 -4 -155 -9 -146 -35 4 -12 9 -49 12 -82 10 -126 -78 -258 -216 -321 -60
-28 -63 -30 -58 -59 18 -105 105 -234 168 -250 36 -9 102 10 138 41 l30 25 21
-40 c11 -22 20 -46 20 -52 0 -13 -81 -111 -120 -146 -31 -27 -100 -43 -143
-33 -68 15 -142 72 -173 133 -18 33 -49 176 -59 266 -7 58 -12 68 -56 117 -32
36 -49 63 -49 80 0 31 28 94 42 94 6 0 26 -14 45 -30 38 -33 58 -36 107 -16
93 39 158 212 105 280 -17 22 -28 26 -71 26 -82 0 -242 -21 -264 -35 -30 -19
-38 -69 -84 -574 -11 -118 -21 -215 -22 -217 -2 -1 -37 6 -78 17 -41 10 -82
19 -91 19 -38 0 -39 17 -14 329 l8 94 -29 -7 c-16 -4 -53 -18 -83 -32 -30 -13
-56 -23 -57 -21 -2 2 10 23 28 46 32 44 61 61 103 61 13 0 27 5 31 11 11 18
35 272 27 279 -10 8 -179 -3 -188 -11 -3 -4 6 -19 21 -34 25 -25 26 -31 22
-98 -7 -98 -38 -165 -102 -225 -51 -46 -128 -82 -174 -82 -15 0 -22 -4 -18
-12 3 -7 9 -22 13 -32 3 -11 20 -47 37 -80 36 -71 88 -106 161 -109 42 -2 45
-4 45 -29 0 -50 -29 -105 -65 -122 -95 -46 -222 7 -260 108 -13 35 -35 184
-35 238 0 16 -14 22 -102 42 -66 15 -68 74 -3 134 33 30 39 32 107 32 83 -1
113 6 149 35 34 27 49 57 49 97 0 75 -57 108 -184 108 l-86 0 0 75 c0 89 -18
81 205 90 88 3 275 12 415 20 140 8 482 22 760 30 730 22 1292 50 2322 116
225 15 509 25 526 20 11 -3 12 -24 7 -100z m-4320 89 c3 -6 -1 -7 -9 -4 -18 7
-21 14 -7 14 6 0 13 -4 16 -10z m5005 -30 c0 -5 -7 -10 -16 -10 -8 0 -12 5 -9
10 3 6 10 10 16 10 5 0 9 -4 9 -10z m3797 4 c-3 -3 -12 -4 -19 -1 -8 3 -5 6 6
6 11 1 17 -2 13 -5z m96 -11 c-7 -2 -19 -2 -25 0 -7 3 -2 5 12 5 14 0 19 -2
13 -5z m-9133 -42 c0 -4 -37 -11 -82 -14 -86 -7 -316 -7 -263 0 25 3 222 17
318 22 15 0 27 -3 27 -8z m6598 -18 c-21 -2 -57 -2 -80 0 -24 2 -7 4 37 4 44
0 63 -2 43 -4z m225 -10 c-23 -2 -64 -2 -90 0 -26 2 -7 3 42 3 50 0 71 -1 48
-3z m1972 -12 l40 -9 -45 0 c-25 0 -56 4 -70 8 -24 8 -24 8 5 8 17 1 48 -3 70
-7z m-8805 -11 c0 -5 -4 -10 -10 -10 -5 0 -10 5 -10 10 0 6 5 10 10 10 6 0 10
-4 10 -10z m-47 -7 c-13 -2 -33 -2 -45 0 -13 2 -3 4 22 4 25 0 35 -2 23 -4z
m8960 0 c-7 -2 -19 -2 -25 0 -7 3 -2 5 12 5 14 0 19 -2 13 -5z m-1500 -50 c-7
-2 -21 -2 -30 0 -10 3 -4 5 12 5 17 0 24 -2 18 -5z m-7149 -34 c-1 -13 -5 -58
-9 -99 -7 -75 -7 -76 19 -88 16 -7 72 -12 136 -12 l110 0 0 -26 c0 -43 -51
-79 -133 -94 -120 -21 -185 -91 -175 -190 2 -26 11 -40 37 -57 l34 -23 -43 0
c-37 0 -48 5 -77 36 -34 38 -44 55 -18 34 8 -6 19 -9 25 -5 17 11 11 20 -16
21 -14 1 -28 5 -32 9 -8 7 19 26 29 19 4 -2 10 0 14 6 4 6 11 7 17 4 7 -4 8 5
3 27 -9 45 -19 53 -43 40 -31 -17 -42 -13 -42 12 0 34 12 41 26 15 11 -20 13
-17 19 35 5 42 11 57 23 57 8 0 13 3 10 6 -10 9 30 44 50 44 13 0 17 -8 17
-37 0 -41 -22 -68 -42 -52 -7 7 -14 6 -18 -1 -3 -5 1 -13 9 -16 19 -7 21 -31
4 -37 -7 -2 -9 -8 -5 -13 13 -13 42 11 41 34 -1 12 5 23 12 26 8 3 14 0 14 -6
0 -9 3 -9 12 0 7 7 11 31 9 53 -2 27 2 45 11 51 9 7 7 8 -7 4 -15 -5 -25 1
-37 22 -14 23 -16 47 -12 121 2 51 1 90 -4 87 -15 -9 -197 -9 -197 0 0 5 43
10 95 12 52 2 100 5 105 7 20 7 30 -2 29 -26z m-354 1 c0 -5 -15 -10 -32 -9
-31 1 -32 1 -8 9 35 11 40 11 40 0z m90 0 c0 -5 -4 -10 -10 -10 -5 0 -10 5
-10 10 0 6 5 10 10 10 6 0 10 -4 10 -10z m5277 -32 c-3 -8 -6 -5 -6 6 -1 11 2
17 5 13 3 -3 4 -12 1 -19z m60 0 c-3 -8 -6 -5 -6 6 -1 11 2 17 5 13 3 -3 4
-12 1 -19z m-5297 -129 c1 -74 5 -147 10 -164 19 -70 20 -83 4 -89 -8 -3 -13
-2 -10 3 3 4 1 28 -4 52 -6 33 -8 10 -7 -94 2 -100 -1 -137 -10 -137 -8 0 -10
24 -7 88 2 48 7 176 10 285 3 109 8 196 10 194 2 -2 4 -64 4 -138z m7155 131
l60 -7 -50 -1 c-27 0 -75 3 -105 8 l-55 7 45 1 c25 0 72 -4 105 -8z m-7200
-37 c-6 -37 -14 -270 -15 -410 0 -69 -4 -113 -10 -113 -5 0 -10 13 -10 29 0
21 -6 32 -20 36 -10 3 -27 24 -36 46 -10 21 -22 39 -27 39 -5 0 -7 6 -4 13 2
6 -4 30 -13 52 -24 57 -32 168 -13 195 8 11 18 18 22 15 5 -2 17 2 27 10 27
20 71 19 77 -2 3 -10 5 12 6 50 0 37 5 67 11 67 5 0 7 -12 5 -27z m7413 20
c-16 -2 -40 -2 -55 0 -16 2 -3 4 27 4 30 0 43 -2 28 -4z m177 -7 c11 -2 -18
-3 -65 -3 -47 0 -77 3 -68 6 17 6 89 4 133 -3z m58 -13 c-7 -2 -19 -2 -25 0
-7 3 -2 5 12 5 14 0 19 -2 13 -5z m127 -9 c0 -2 -9 -4 -20 -4 -11 0 -20 4 -20
9 0 5 9 7 20 4 11 -3 20 -7 20 -9z m-4265 -14 c66 -7 124 -15 129 -20 14 -14
-36 -101 -77 -134 -33 -26 -46 -30 -123 -34 -71 -4 -86 -2 -82 9 3 8 -3 36
-13 63 -10 28 -16 52 -14 54 2 3 44 4 92 3 119 -3 97 16 -27 23 -52 3 -96 5
-97 5 -2 1 -3 10 -3 20 0 20 23 28 70 24 14 -1 79 -7 145 -13z m3520 -2 c-12
-7 -21 -6 -32 4 -12 13 -10 14 18 10 27 -4 29 -6 14 -14z m62 -4 c-3 -3 -12
-4 -19 -1 -8 3 -5 6 6 6 11 1 17 -2 13 -5z m97 -3 c4 -5 -12 -7 -36 -4 -57 8
-61 13 -10 13 22 0 43 -4 46 -9z m141 -10 c-6 -6 -33 -6 -65 -2 l-55 9 65 1
c39 1 60 -3 55 -8z m385 -21 c69 -5 208 -14 310 -20 616 -35 1264 -101 1295
-131 6 -6 -1 -8 -20 -5 -26 5 -121 15 -280 31 -22 2 -83 7 -135 10 -52 4 -129
10 -170 15 -41 5 -169 16 -285 25 -115 8 -230 17 -255 20 -82 9 -250 22 -575
45 -204 14 -293 31 -130 24 66 -3 176 -9 245 -14z m-6206 -10 c12 -12 -2 -82
-25 -118 -10 -18 -33 -41 -51 -52 -31 -19 -34 -19 -46 -2 -50 68 -81 78 -121
41 -12 -12 -24 -19 -26 -17 -2 2 4 35 13 73 l17 70 55 12 c56 12 168 8 184 -7z
m5581 2 c-3 -3 -11 0 -18 7 -9 10 -8 11 6 5 10 -3 15 -9 12 -12z m-4541 -27
c10 -50 -9 -110 -42 -134 -27 -19 -59 -24 -136 -22 -37 1 -38 2 -31 29 4 15
10 54 14 87 l6 60 50 6 c28 3 69 7 91 7 40 2 42 1 48 -33z m743 -2 c-3 -10 -5
-4 -5 12 0 17 2 24 5 18 2 -7 2 -21 0 -30z m1990 -40 c-2 -16 -4 -3 -4 27 0
30 2 43 4 28 2 -16 2 -40 0 -55z m-3298 -7 c-10 -55 -35 -88 -81 -107 -26 -11
-35 -10 -64 6 -34 18 -34 18 -34 91 l0 73 83 3 c45 2 87 -1 94 -7 8 -7 9 -24
2 -59z m4614 37 c34 -17 79 -44 99 -62 69 -61 103 -181 56 -196 -20 -6 -20 -8
-5 -12 40 -11 0 -111 -65 -162 -68 -54 -196 -56 -303 -6 -238 113 -265 377
-48 460 63 24 188 14 266 -22z m427 -13 c0 -5 -5 -10 -11 -10 -5 0 -7 5 -4 10
3 6 8 10 11 10 2 0 4 -4 4 -10z m50 0 c0 -5 -2 -10 -4 -10 -3 0 -8 5 -11 10
-3 6 -1 10 4 10 6 0 11 -4 11 -10z m-2720 -170 c0 -29 -4 -40 -15 -40 -11 0
-15 11 -15 40 0 29 4 40 15 40 11 0 15 -11 15 -40z m-95 0 c3 -5 1 -10 -4 -10
-6 0 -11 5 -11 10 0 6 2 10 4 10 3 0 8 -4 11 -10z m-15 -52 c0 -19 -2 -20 -10
-8 -13 19 -13 30 0 30 6 0 10 -10 10 -22z m-4085 -28 c-4 -12 -9 -19 -12 -17
-3 3 -2 15 2 27 4 12 9 19 12 17 3 -3 2 -15 -2 -27z m9342 14 c-3 -3 -12 -4
-19 -1 -8 3 -5 6 6 6 11 1 17 -2 13 -5z m-1090 -10 c-3 -3 -12 -4 -19 -1 -8 3
-5 6 6 6 11 1 17 -2 13 -5z m1199 -63 c76 -35 125 -119 123 -212 l-1 -44 -12
47 c-6 25 -14 50 -18 54 -5 4 -8 14 -8 21 0 21 -69 99 -99 112 -19 9 -14 1 21
-31 25 -24 53 -60 62 -82 33 -79 12 -172 -46 -210 -31 -19 -117 -30 -150 -17
-39 15 -97 69 -119 113 -46 90 -8 204 86 256 31 17 116 14 161 -7z m-6468 -11
c6 -11 44 -36 82 -55 64 -32 70 -38 70 -66 0 -24 -4 -29 -17 -25 -41 11 -211
17 -248 8 -22 -6 -68 -20 -102 -33 -62 -23 -63 -23 -78 -3 -20 26 -19 44 4 44
41 0 205 91 240 133 18 22 33 21 49 -3z m6182 -40 c-6 -11 -13 -20 -16 -20 -2
0 0 9 6 20 6 11 13 20 16 20 2 0 0 -9 -6 -20z m-7035 -20 c10 -11 14 -20 8
-20 -5 0 -18 9 -28 20 -10 11 -14 20 -8 20 5 0 18 -9 28 -20z m-2130 0 c3 -5
1 -10 -4 -10 -6 0 -11 5 -11 10 0 6 2 10 4 10 3 0 8 -4 11 -10z m4465 -10 c0
-5 -4 -10 -10 -10 -5 0 -10 5 -10 10 0 6 5 10 10 10 6 0 10 -4 10 -10z m85
-20 c4 -6 -11 -10 -37 -9 -36 1 -39 2 -18 9 36 11 48 11 55 0z m30 0 c3 -5 1
-10 -4 -10 -6 0 -11 5 -11 10 0 6 2 10 4 10 3 0 8 -4 11 -10z m521 -17 c-10
-10 -19 5 -10 18 6 11 8 11 12 0 2 -7 1 -15 -2 -18z m-1041 7 c4 -6 -5 -10
-19 -10 -14 0 -26 5 -26 10 0 6 9 10 19 10 11 0 23 -4 26 -10z m-4778 -6 c-3
-3 -12 -4 -19 -1 -8 3 -5 6 6 6 11 1 17 -2 13 -5z m4841 -1 c-10 -2 -26 -2
-35 0 -10 3 -2 5 17 5 19 0 27 -2 18 -5z m188 -1 c-5 -8 -126 -5 -135 3 -2 3
28 5 68 5 40 0 70 -4 67 -8z m-4538 -9 c-32 -2 -84 -2 -115 0 -32 2 -6 3 57 3
63 0 89 -1 58 -3z m422 -3 c0 -12 -269 -12 -315 0 -18 4 41 8 143 9 109 1 172
-3 172 -9z m3689 -36 c2 -2 -30 -4 -72 -4 -42 0 -78 4 -82 9 -5 9 144 3 154
-5z m1159 9 c-21 -2 -57 -2 -80 0 -24 2 -7 4 37 4 44 0 63 -2 43 -4z m1733
-39 c-36 -41 -41 -53 -41 -96 0 -69 82 -276 157 -396 8 -13 12 -26 9 -29 -3
-3 -8 2 -12 11 -3 9 -11 13 -18 9 -6 -3 -8 -3 -4 2 4 4 -10 42 -32 84 -22 42
-40 82 -40 89 0 16 -17 16 -22 0 -3 -7 -5 1 -5 18 0 16 -9 50 -21 75 -28 57
-42 146 -28 181 10 24 80 98 93 98 2 0 -14 -21 -36 -46z m-6962 4 c-2 -30 -2
-30 -6 -6 -3 18 -12 28 -26 31 -18 4 -17 5 6 6 24 1 27 -2 26 -31z m174 25
c-18 -2 -48 -2 -65 0 -18 2 -4 4 32 4 36 0 50 -2 33 -4z m208 -38 c16 -99 17
-126 6 -122 -7 2 -12 10 -12 18 -2 41 -18 108 -26 103 -5 -3 -6 2 -3 11 5 13
2 15 -19 10 -14 -4 -32 -3 -39 1 -9 6 -4 11 17 15 57 13 69 7 76 -36z m3862
38 c-7 -2 -19 -2 -25 0 -7 3 -2 5 12 5 14 0 19 -2 13 -5z m-942 -52 c9 -9 20
-28 24 -42 27 -87 176 -291 261 -357 22 -18 52 -41 65 -53 13 -11 43 -32 67
-46 31 -18 40 -28 31 -34 -14 -8 -4 -9 124 -12 71 -1 79 -5 49 -24 -13 -8 -43
-9 -98 -3 -43 5 -113 11 -154 14 -211 15 -250 19 -245 24 7 7 96 6 192 -3 63
-6 74 -4 79 10 4 10 0 23 -11 33 -12 12 -19 13 -22 5 -2 -6 -22 8 -45 33 -30
33 -44 41 -50 32 -5 -9 -8 -7 -8 8 0 11 -12 32 -27 46 -67 61 -129 134 -125
147 3 10 0 12 -12 8 -11 -5 -16 -1 -16 13 0 10 -4 22 -10 25 -5 3 -10 16 -10
28 0 17 -2 19 -9 8 -7 -11 -12 -4 -20 27 -7 23 -15 44 -20 46 -5 3 -11 19 -14
36 -4 16 -12 30 -18 30 -6 0 -8 -7 -5 -17 5 -14 2 -13 -11 3 -10 11 -29 31
-43 43 l-25 22 45 -16 c24 -8 52 -24 61 -34z m1132 42 c-13 -2 -35 -2 -50 0
-16 2 -5 4 22 4 28 0 40 -2 28 -4z m3061 -47 c184 -42 232 -56 195 -56 -8 0
-104 21 -214 46 -110 25 -234 49 -275 54 l-75 9 85 -4 c54 -2 159 -20 284 -49z
m-3355 8 c2 -2 -30 -4 -72 -4 -76 0 -88 -5 -65 -28 9 -9 9 -12 1 -12 -12 0
-63 43 -63 53 0 6 192 -3 199 -9z m131 -3 c-26 -8 -99 -6 -108 4 -3 3 26 5 64
4 48 0 61 -3 44 -8z m585 -8 c215 -4 393 -8 398 -9 4 -1 14 -2 22 -3 11 -1 15
-12 14 -43 l-2 -43 -10 38 c-9 32 -14 37 -41 37 -214 0 -903 24 -911 32 -7 7
14 8 65 4 41 -3 251 -9 465 -13z m-4798 -55 c-2 -13 -4 -3 -4 22 0 25 2 35 4
23 2 -13 2 -33 0 -45z m6765 30 c-7 -7 -12 -8 -12 -2 0 14 12 26 19 19 2 -3
-1 -11 -7 -17z m-5495 -50 c-3 -8 -6 -5 -6 6 -1 11 2 17 5 13 3 -3 4 -12 1
-19z m1992 -35 c0 -10 -3 -13 -6 -6 -3 10 -8 9 -20 -3 -21 -21 -27 -11 -19 32
l7 36 20 -20 c10 -12 19 -29 18 -39z m3552 24 c-16 -16 -26 0 -10 19 9 11 15
12 17 4 2 -6 -1 -17 -7 -23z m966 12 c63 -12 112 -23 110 -25 -5 -5 -169 22
-212 35 -51 15 -17 12 102 -10z m-5382 1 c3 -5 2 -10 -4 -10 -5 0 -13 5 -16
10 -3 6 -2 10 4 10 5 0 13 -4 16 -10z m5125 -40 c293 -56 297 -57 447 -80 296
-45 535 -45 758 -1 55 11 103 17 107 13 7 -7 -12 -129 -32 -202 -7 -26 -25
-55 -48 -77 -36 -33 -36 -34 -9 -27 33 8 34 3 4 -79 -57 -158 -184 -264 -366
-309 -115 -29 -318 -31 -441 -4 -230 49 -482 187 -596 325 -69 83 -69 92 -2
75 29 -8 68 -14 88 -13 27 0 14 6 -55 25 -49 14 -100 31 -113 40 -24 16 -59
87 -96 194 -33 94 -40 138 -24 157 18 22 114 13 378 -37z m1735 -18 c1 -13 -2
-21 -9 -19 -6 2 -12 23 -13 48 -2 39 -1 41 8 19 6 -14 12 -35 14 -48z m-83 41
c10 -9 18 -23 18 -32 -1 -14 -2 -14 -10 1 -16 27 -75 40 -153 35 -47 -4 -60
-3 -37 2 66 16 162 12 182 -6z m-252 -13 c-14 -4 -36 -8 -50 -8 -22 0 -22 1 5
8 17 4 39 8 50 8 16 0 15 -2 -5 -8z m-2082 -75 c1 -25 -1 -27 -8 -10 -5 11 -8
36 -8 55 0 32 1 33 8 10 4 -14 8 -38 8 -55z m1119 69 c-3 -3 -12 -4 -19 -1 -8
3 -5 6 6 6 11 1 17 -2 13 -5z m-6668 -49 l0 -20 -9 20 c-5 11 -9 27 -9 35 -1
13 0 13 9 0 5 -8 9 -24 9 -35z m6728 39 c-3 -3 -12 -4 -19 -1 -8 3 -5 6 6 6
11 1 17 -2 13 -5z m-4798 -41 c0 -5 -4 -17 -9 -28 -8 -18 -9 -17 -9 8 -1 15 4
27 9 27 6 0 10 -3 9 -7z m6026 -13 c3 -5 1 -10 -4 -10 -6 0 -11 5 -11 10 0 6
2 10 4 10 3 0 8 -4 11 -10z m108 -28 c15 -10 25 -21 21 -24 -7 -8 -64 21 -64
33 0 13 12 11 43 -9z m-8515 -52 c-23 -22 -43 -38 -45 -36 -6 6 72 83 80 79 4
-3 -11 -22 -35 -43z m-446 11 c25 -16 49 -35 54 -42 4 -7 -6 -4 -22 8 -68 47
-151 55 -236 23 -41 -15 -48 -16 -33 -4 37 30 80 43 136 44 44 0 64 -6 101
-29z m928 1 c0 -15 -2 -15 -10 -2 -13 20 -13 33 0 25 6 -3 10 -14 10 -23z
m7918 -16 c-10 -12 -21 -31 -24 -43 -4 -13 -10 -23 -15 -23 -12 0 -11 1 5 41
7 19 16 42 19 52 6 15 9 16 20 5 12 -10 11 -16 -5 -32z m-6050 7 c-14 -34 -35
-58 -23 -28 4 11 10 28 12 38 3 9 9 17 14 17 5 0 3 -12 -3 -27z m6433 -6 c-8
-8 -11 -7 -11 4 0 20 13 34 18 19 3 -7 -1 -17 -7 -23z m-141 6 c26 -7 36 -15
39 -33 3 -24 2 -24 -16 -7 -24 21 -34 22 -27 2 4 -8 1 -15 -5 -15 -7 0 -14 7
-17 15 -3 8 -21 20 -40 27 -19 6 -34 16 -34 21 0 9 37 6 100 -10z m-9453 -29
c-30 -28 -43 -29 -24 -3 10 14 30 25 47 28 3 1 -8 -11 -23 -25z m1938 -53
c-10 -9 -65 43 -65 61 0 18 5 15 34 -18 19 -21 32 -41 31 -43z m-965 59 c8 -5
11 -10 5 -10 -5 0 -17 5 -25 10 -8 5 -10 10 -5 10 6 0 17 -5 25 -10z m-875
-10 c-3 -5 -11 -10 -16 -10 -6 0 -7 5 -4 10 3 6 11 10 16 10 6 0 7 -4 4 -10z
m9122 -12 c-3 -8 -6 -5 -6 6 -1 11 2 17 5 13 3 -3 4 -12 1 -19z m-9167 -23
c-7 -9 -15 -13 -17 -11 -7 7 7 26 19 26 6 0 6 -6 -2 -15z m675 6 c-3 -6 14
-12 37 -14 38 -3 36 -4 -14 -5 -71 -2 -89 18 -25 27 5 0 6 -3 2 -8z m615 -1
c0 -5 -2 -10 -4 -10 -3 0 -8 5 -11 10 -3 6 -1 10 4 10 6 0 11 -4 11 -10z m520
-37 c-11 -21 -21 -46 -24 -55 -4 -12 -16 -18 -37 -18 l-33 0 31 28 c16 15 38
39 48 55 26 40 36 33 15 -10z m7635 -120 c-3 -35 -1 -63 4 -63 5 0 11 -9 14
-21 5 -20 5 -20 -21 -3 -56 37 -79 44 -138 44 -76 0 -134 -29 -199 -102 -25
-27 -45 -45 -45 -40 0 10 17 31 72 89 12 12 48 36 81 53 48 25 70 31 107 28
57 -4 88 15 65 39 -23 22 -18 36 9 29 22 -5 24 -2 32 52 l7 57 9 -50 c4 -27 6
-78 3 -112z m-2815 127 c14 -11 20 -20 14 -20 -6 0 -14 3 -18 8 -4 4 -22 12
-39 19 -30 11 -30 12 -7 12 14 0 36 -8 50 -19z m2757 -12 c-3 -8 -6 -5 -6 6
-1 11 2 17 5 13 3 -3 4 -12 1 -19z m-7452 -13 c20 -16 25 -24 14 -25 -8 0 -26
11 -39 25 -30 32 -14 32 25 0z m-2072 -5 c-3 -11 -9 -20 -13 -20 -5 0 -6 9 -3
20 3 11 9 20 13 20 5 0 6 -9 3 -20z m1222 10 c7 -12 -22 -12 -50 0 -17 7 -15
9 12 9 17 1 35 -3 38 -9z m5270 -5 c-29 -13 -27 -13 45 -15 57 -2 68 -4 45
-10 -16 -4 -48 -9 -70 -10 -22 -1 -32 -4 -22 -7 33 -9 12 -25 -38 -29 -27 -2
-68 -13 -92 -24 -23 -11 -48 -20 -55 -20 -6 0 -8 -3 -5 -7 4 -3 -3 -11 -16
-18 -12 -6 -40 -21 -62 -33 -59 -32 -194 -159 -202 -190 -3 -15 -13 -34 -21
-42 -14 -13 -15 -13 -10 8 3 12 3 22 -1 22 -14 0 -61 -63 -61 -82 0 -10 -4
-18 -10 -18 -5 0 -10 -7 -10 -15 0 -8 -4 -15 -10 -15 -5 0 -10 -4 -10 -10 0
-5 -14 -39 -30 -76 -17 -36 -33 -86 -37 -110 -6 -45 -18 -57 -26 -26 -3 9 -2
-18 1 -60 3 -48 1 -78 -5 -78 -11 0 -4 -58 8 -66 14 -8 11 -46 -3 -42 -32 11
-33 261 -2 387 37 147 124 306 221 405 70 71 184 143 267 167 39 11 76 22 81
24 6 2 44 4 85 4 71 0 74 -1 45 -14z m2746 -12 c-8 -15 -10 -15 -11 -2 0 17
10 32 18 25 2 -3 -1 -13 -7 -23z m-8311 -27 c276 -33 701 -76 760 -76 26 0 31
3 20 10 -11 7 -2 8 30 5 25 -2 101 -7 170 -10 238 -10 1021 -72 935 -73 -108
-2 -715 32 -805 44 -25 4 -43 4 -40 1 7 -7 129 -22 335 -42 88 -8 212 -19 275
-25 63 -6 155 -18 205 -25 59 -10 93 -11 99 -5 13 13 93 13 101 1 3 -5 -9 -11
-27 -13 -18 -2 98 -13 257 -26 386 -31 538 -40 548 -35 23 13 -2 21 -75 22
-119 3 -110 11 11 11 l103 0 -14 -22 c-56 -85 -80 -134 -108 -218 -32 -98 -60
-237 -60 -296 0 -19 -2 -34 -4 -34 -17 0 -34 14 -30 25 3 7 -1 19 -9 27 -8 8
-16 23 -18 34 -3 15 -26 24 -124 47 -66 16 -158 39 -205 52 -47 13 -102 26
-122 30 -21 3 -38 10 -38 15 0 6 -9 10 -20 10 -11 0 -53 9 -93 19 -39 11 -107
27 -151 37 -47 10 -73 19 -66 24 18 11 4 27 -30 35 -17 4 -28 10 -25 15 3 5
-11 14 -30 21 -19 7 -35 19 -35 26 0 17 17 17 23 1 3 -7 2 6 0 29 -8 61 3 93
30 93 12 0 29 5 37 10 11 7 5 10 -22 10 -21 0 -38 5 -38 10 0 6 12 10 27 10
14 0 24 2 22 4 -5 6 -172 32 -254 40 -33 4 -139 15 -235 26 -173 19 -282 30
-515 50 -455 40 -879 88 -883 101 -5 12 -59 11 -82 -1 -20 -11 -50 10 -50 35
0 11 7 11 43 0 23 -7 103 -20 177 -29z m353 37 c-7 -2 -19 -2 -25 0 -7 3 -2 5
12 5 14 0 19 -2 13 -5z m1872 -12 c-3 -6 -14 -11 -23 -11 -15 1 -15 2 2 15 21
16 32 13 21 -4z m3709 -25 c26 -21 52 -48 58 -60 6 -11 -11 0 -38 27 -27 26
-56 50 -66 53 -10 3 -18 10 -18 16 0 14 13 7 64 -36z m-5342 23 c7 -4 9 -11 5
-15 -3 -4 -12 -2 -20 4 -7 6 -22 9 -33 6 -10 -2 -39 0 -64 5 -43 9 -42 9 27 8
40 0 78 -4 85 -8z m2786 -6 c-10 -2 -28 -2 -40 0 -13 2 -5 4 17 4 22 1 32 -1
23 -4z m2406 -13 c56 -22 97 -53 60 -47 -11 1 -25 6 -32 11 -8 5 -24 3 -38 -4
-19 -11 -22 -16 -12 -28 11 -12 6 -14 -34 -11 -25 2 -44 2 -42 0 2 -2 -3 -13
-13 -23 -15 -17 -15 -18 0 -18 23 0 21 -16 -3 -47 l-20 -26 6 32 c6 27 4 31
-15 31 -12 0 -21 -6 -21 -15 0 -7 -8 -18 -17 -24 -17 -9 -16 -11 5 -31 24 -23
26 -28 13 -49 -7 -11 -12 -10 -22 8 -20 31 -31 26 -28 -13 2 -19 0 -38 -4 -42
-4 -4 -7 -2 -7 4 0 7 -7 12 -15 12 -12 0 -15 16 -15 85 0 67 3 85 14 85 8 0
16 5 18 11 3 9 9 9 25 0 25 -13 38 -1 29 27 -5 16 -2 18 25 14 23 -3 36 0 45
12 7 10 31 20 53 23 48 7 45 23 -5 23 -21 0 -33 4 -29 10 9 14 17 13 79 -10z
m-1487 4 c-3 -3 -12 -4 -19 -1 -8 3 -5 6 6 6 11 1 17 -2 13 -5z m-750 -10 c-3
-3 -12 -4 -19 -1 -8 3 -5 6 6 6 11 1 17 -2 13 -5z m2133 -4 c0 -5 -4 -10 -9
-10 -6 0 -13 5 -16 10 -3 6 1 10 9 10 9 0 16 -4 16 -10z m2589 -61 c-19 -38
-34 -58 -37 -49 -3 7 0 16 7 18 6 2 11 10 11 17 0 16 41 88 46 82 3 -2 -10
-33 -27 -68z m-9912 37 c-52 -19 -74 -41 -81 -82 -4 -19 -11 -34 -16 -34 -14
0 -12 15 5 57 24 58 43 73 89 73 l41 -1 -38 -13z m3730 -12 c-3 -3 -12 -4 -19
-1 -8 3 -5 6 6 6 11 1 17 -2 13 -5z m3473 -4 c0 -5 -4 -10 -10 -10 -5 0 -10 5
-10 10 0 6 5 10 10 10 6 0 10 -4 10 -10z m-4917 -7 c-7 -2 -19 -2 -25 0 -7 3
-2 5 12 5 14 0 19 -2 13 -5z m5167 -3 c0 -5 -4 -10 -10 -10 -5 0 -10 5 -10 10
0 6 5 10 10 10 6 0 10 -4 10 -10z m85 0 c3 -5 2 -10 -4 -10 -5 0 -13 5 -16 10
-3 6 -2 10 4 10 5 0 13 -4 16 -10z m-5147 -7 c-10 -2 -26 -2 -35 0 -10 3 -2 5
17 5 19 0 27 -2 18 -5z m2812 -11 c20 -9 2 -11 -82 -11 -141 -1 -249 -17 -326
-48 -35 -14 -66 -22 -69 -19 -3 3 7 10 23 16 16 6 43 18 61 27 18 8 56 19 85
23 29 4 47 8 40 9 -7 0 -10 6 -6 12 8 14 237 6 274 -9z m-1662 -9 c-21 -2 -55
-2 -75 0 -21 2 -4 4 37 4 41 0 58 -2 38 -4z m3595 0 c-13 -2 -23 -9 -23 -14 0
-5 -7 -9 -15 -9 -8 0 -15 4 -15 9 0 11 25 19 55 18 16 0 16 -1 -2 -4z m-3446
-10 c-20 -2 -52 -2 -70 0 -17 2 0 4 38 4 39 0 53 -2 32 -4z m252 -9 c2 -2 -37
-4 -87 -4 -51 0 -92 4 -92 9 0 8 170 3 179 -5z m1350 0 c2 -2 -7 -4 -22 -4
-14 0 -29 5 -32 10 -6 10 42 4 54 -6z m-99 -4 c10 -7 1 -8 -30 -4 -56 8 -64
14 -19 14 19 0 41 -5 49 -10z m2487 -12 c-3 -8 -6 -5 -6 6 -1 11 2 17 5 13 3
-3 4 -12 1 -19z m141 -3 c-3 -3 -9 2 -12 12 -6 14 -5 15 5 6 7 -7 10 -15 7
-18z m-6331 -17 c-3 -7 -5 -2 -5 12 0 14 2 19 5 13 2 -7 2 -19 0 -25z m2591
25 c-21 -2 -55 -2 -75 0 -21 2 -4 4 37 4 41 0 58 -2 38 -4z m1203 -24 c33 -15
36 -19 15 -14 -41 9 -94 33 -75 34 9 1 36 -8 60 -20z m194 11 c3 -5 1 -10 -4
-10 -6 0 -11 5 -11 10 0 6 2 10 4 10 3 0 8 -4 11 -10z m2397 -65 c18 -26 16
-26 -11 5 -17 19 -30 42 -30 50 0 10 3 9 11 -5 6 -11 20 -33 30 -50z m1998 50
c0 -8 -71 -105 -77 -105 -3 0 2 10 11 23 9 12 24 37 33 55 14 27 33 43 33 27z
m-6163 -12 c-20 -2 -52 -2 -70 0 -17 2 0 4 38 4 39 0 53 -2 32 -4z m1814 -10
c13 -17 13 -17 -6 -3 -11 8 -22 16 -24 17 -2 2 0 3 6 3 6 0 17 -8 24 -17z
m-1633 0 c-16 -2 -40 -2 -55 0 -16 2 -3 4 27 4 30 0 43 -2 28 -4z m790 -18
c-20 -14 -40 -25 -44 -25 -5 0 7 11 26 25 19 14 39 25 44 25 6 0 -6 -11 -26
-25z m-4791 -37 c-2 -13 -4 -5 -4 17 -1 22 1 32 4 23 2 -10 2 -28 0 -40z
m4146 45 c-13 -2 -35 -2 -50 0 -16 2 -5 4 22 4 28 0 40 -2 28 -4z m6254 -55
c19 -18 44 -55 57 -83 26 -53 57 -185 55 -232 0 -15 -11 17 -23 72 -22 104
-57 177 -108 229 -26 25 -34 28 -70 22 -43 -7 -98 -34 -98 -49 0 -4 9 -3 19 3
53 28 53 4 1 -34 -22 -17 -50 -45 -63 -63 -12 -18 -27 -31 -34 -29 -7 3 -28
-17 -48 -45 -22 -29 -42 -46 -48 -42 -7 3 -9 3 -5 -2 4 -4 2 -17 -4 -29 -7
-11 -11 -24 -11 -27 1 -4 -7 -15 -17 -24 -11 -10 -20 -24 -20 -30 0 -7 -7 -15
-15 -19 -8 -3 -15 -13 -15 -21 0 -9 -4 -13 -10 -10 -5 3 -10 1 -10 -5 0 -6 -5
-8 -10 -5 -6 3 -7 18 -4 32 5 18 3 24 -5 19 -6 -4 -11 -16 -11 -27 0 -10 -4
-19 -10 -19 -18 0 -11 40 15 80 14 22 25 42 25 44 0 17 157 219 192 248 130
106 201 118 275 46z m-8780 20 c-3 -8 -6 -5 -6 6 -1 11 2 17 5 13 3 -3 4 -12
1 -19z m2316 5 c-7 -2 -19 -2 -25 0 -7 3 -2 5 12 5 14 0 19 -2 13 -5z m3317
-36 c0 -46 14 -69 36 -60 8 3 14 0 14 -6 0 -6 -5 -11 -10 -11 -7 0 -7 -6 -1
-18 9 -18 7 -33 -15 -94 -9 -24 -24 -23 -24 2 0 11 4 20 8 20 5 0 8 20 8 45
-1 43 -3 45 -30 45 -22 0 -27 4 -22 16 3 9 6 36 6 60 0 32 4 44 15 44 11 0 15
-11 15 -43z m-561 -11 c-11 -20 -23 -36 -25 -36 -6 0 16 53 28 67 20 25 19 6
-3 -31z m-2462 27 c-20 -2 -52 -2 -70 0 -17 2 0 4 38 4 39 0 53 -2 32 -4z
m6274 -7 c5 3 9 -5 9 -18 -1 -22 -1 -22 -15 -4 -8 11 -15 25 -14 30 0 6 3 5 6
-2 2 -6 9 -10 14 -6z m-6103 -3 c-21 -2 -55 -2 -75 0 -21 2 -4 4 37 4 41 0 58
-2 38 -4z m3622 -3 c0 -5 -2 -10 -4 -10 -3 0 -8 5 -11 10 -3 6 -1 10 4 10 6 0
11 -4 11 -10z m-8017 -58 c4 -21 3 -31 -3 -27 -6 3 -10 20 -10 37 0 38 5 34
13 -10z m9997 -6 c0 -2 -7 -9 -15 -16 -13 -11 -14 -10 -9 4 5 14 24 23 24 12z
m-2441 -10 c-2 -2 -24 -6 -48 -9 -29 -4 -40 -2 -30 4 13 8 88 14 78 5z m2291
-16 c-6 -11 -13 -20 -16 -20 -2 0 0 9 6 20 6 11 13 20 16 20 2 0 0 -9 -6 -20z
m-3200 6 c0 -3 -4 -8 -10 -11 -5 -3 -10 -1 -10 4 0 6 5 11 10 11 6 0 10 -2 10
-4z m1455 -16 c3 -5 1 -10 -4 -10 -6 0 -11 5 -11 10 0 6 2 10 4 10 3 0 8 -4
11 -10z m-6777 -14 c42 -22 70 -57 99 -127 26 -61 27 -73 28 -224 0 -132 -3
-168 -19 -208 -23 -62 -30 -56 -12 12 9 36 10 51 2 48 -6 -2 -12 -16 -14 -32
-4 -31 -25 -58 -37 -47 -4 4 -5 -2 -1 -13 5 -16 1 -20 -18 -21 -19 -1 -25 4
-29 25 -3 14 -2 28 1 31 4 3 8 23 10 45 2 22 5 69 8 104 4 39 2 67 -5 74 -6 6
-11 31 -11 55 0 41 -21 96 -61 160 -26 42 -54 18 -29 -26 22 -39 60 -148 71
-202 11 -55 5 -159 -8 -146 -3 3 -12 49 -20 103 -14 102 -39 193 -52 193 -8 0
14 -159 28 -201 10 -28 3 -79 -9 -79 -12 0 -26 51 -40 137 -14 85 -30 105 -30
37 0 -58 39 -194 58 -201 7 -3 19 3 27 13 13 18 14 18 15 2 0 -10 -9 -27 -20
-38 -57 -57 -113 68 -109 245 1 91 21 161 40 149 5 -3 9 4 9 16 0 21 40 68 75
88 14 8 16 11 5 12 -35 0 -77 -39 -110 -105 -32 -63 -35 -78 -38 -170 -7 -201
65 -335 145 -272 22 18 26 19 20 4 -3 -9 -2 -17 3 -17 6 0 10 -11 10 -25 0
-14 5 -25 10 -25 6 0 10 -13 10 -28 0 -31 -30 -52 -75 -52 -66 0 -143 136
-176 310 -7 40 -8 38 -4 -20 8 -131 70 -268 144 -317 19 -13 29 -23 24 -23
-23 0 -80 48 -109 92 -47 69 -74 160 -81 265 -10 158 29 285 114 370 38 38 48
43 88 43 25 0 58 -6 73 -14z m6039 -38 c-24 -24 -50 -54 -59 -68 -12 -18 -17
-21 -17 -9 -1 19 89 119 107 119 7 0 -7 -19 -31 -42z m240 -8 c49 -29 86 -92
91 -154 5 -68 -11 -118 -55 -167 -126 -139 -338 11 -283 200 13 45 46 92 84
119 40 29 118 30 163 2z m83 -7 c30 -29 68 -103 51 -103 -5 0 -19 20 -31 45
-12 25 -33 54 -47 65 -14 11 -21 20 -15 20 7 0 25 -12 42 -27z m60 5 c0 -6 -6
-5 -15 2 -8 7 -15 14 -15 16 0 2 7 1 15 -2 8 -4 15 -11 15 -16z m40 -49 c15
-28 5 -23 -15 7 -9 15 -12 23 -6 20 6 -4 16 -16 21 -27z m-1020 -9 c0 -5 -4
-10 -10 -10 -5 0 -10 5 -10 10 0 6 5 10 10 10 6 0 10 -4 10 -10z m465 -56 c-3
-19 -10 -34 -15 -34 -13 0 -13 27 0 35 6 4 10 14 9 23 -3 30 3 49 8 29 3 -11
2 -34 -2 -53z m-5535 13 c0 -5 -4 -5 -10 -2 -5 3 -10 14 -10 23 0 15 2 15 10
2 5 -8 10 -19 10 -23z m1803 26 c-7 -2 -19 -2 -25 0 -7 3 -2 5 12 5 14 0 19
-2 13 -5z m6617 -31 c-16 -21 -36 -58 -44 -82 -9 -29 -14 -37 -15 -22 -1 31
37 110 62 127 31 22 31 19 -3 -23z m-4211 -16 c-3 -3 -11 5 -18 17 -13 21 -12
21 5 5 10 -10 16 -20 13 -22z m1373 12 c-7 -7 -12 -8 -12 -2 0 14 12 26 19 19
2 -3 -1 -11 -7 -17z m3035 -5 c98 -105 50 -303 -74 -303 -40 0 -87 32 -106 73
-21 44 -21 64 -2 84 9 8 18 28 21 43 3 15 17 39 30 54 14 14 21 26 17 26 -16
0 -32 -16 -47 -45 l-16 -30 0 27 c0 17 13 40 34 62 28 30 40 36 75 36 33 0 48
-6 68 -27z m83 -49 c0 -8 -4 -12 -10 -9 -5 3 -10 10 -10 16 0 5 5 9 10 9 6 0
10 -7 10 -16z m-3133 -26 c-3 -7 -5 -2 -5 12 0 14 2 19 5 13 2 -7 2 -19 0 -25z
m-27 -48 c4 0 10 -12 12 -27 3 -16 9 -36 13 -46 5 -13 3 -16 -8 -11 -17 6 -31
49 -22 64 4 6 1 10 -4 10 -6 0 -10 10 -10 23 1 16 2 18 6 5 2 -10 8 -18 13
-18z m-1848 -62 c113 -48 230 -232 269 -423 18 -88 15 -267 -6 -350 -19 -76
-82 -205 -121 -246 -77 -81 -204 -96 -322 -39 -124 62 -225 193 -268 350 -28
99 -25 342 4 427 30 90 67 151 125 210 97 100 198 122 319 71z m2414 -17 c-26
-49 -37 -46 -13 4 12 24 23 41 25 36 2 -6 -4 -23 -12 -40z m-4739 33 c-3 -3
-12 -4 -19 -1 -8 3 -5 6 6 6 11 1 17 -2 13 -5z m76 -11 c-7 -2 -21 -2 -30 0
-10 3 -4 5 12 5 17 0 24 -2 18 -5z m90 -10 c-13 -2 -35 -2 -50 0 -16 2 -5 4
22 4 28 0 40 -2 28 -4z m74 -9 c-3 -3 -12 -4 -19 -1 -8 3 -5 6 6 6 11 1 17 -2
13 -5z m2880 -56 c-3 -8 -6 -5 -6 6 -1 11 2 17 5 13 3 -3 4 -12 1 -19z m-2327
-8 c34 -6 25 -7 -35 -3 -44 3 -82 7 -84 9 -8 7 73 3 119 -6z m3465 0 c3 -5 1
-10 -4 -10 -6 0 -11 5 -11 10 0 6 2 10 4 10 3 0 8 -4 11 -10z m429 -21 c-23
-26 -131 -79 -159 -78 -11 0 4 8 32 18 29 10 72 34 95 53 46 38 63 42 32 7z
m-3781 4 c-13 -2 -33 -2 -45 0 -13 2 -3 4 22 4 25 0 35 -2 23 -4z m70 -10 c-7
-2 -19 -2 -25 0 -7 3 -2 5 12 5 14 0 19 -2 13 -5z m75 -10 c-10 -2 -26 -2 -35
0 -10 3 -2 5 17 5 19 0 27 -2 18 -5z m75 -10 c-7 -2 -19 -2 -25 0 -7 3 -2 5
12 5 14 0 19 -2 13 -5z m177 -16 l95 -12 -6 -70 -5 -70 -2 66 -2 66 -107 12
c-59 7 -110 14 -112 17 -7 7 37 4 139 -9z m3045 -7 c3 -5 2 -10 -4 -10 -5 0
-13 5 -16 10 -3 6 -2 10 4 10 5 0 13 -4 16 -10z m-6102 -25 c-3 -9 -8 -14 -10
-11 -3 3 -2 9 2 15 9 16 15 13 8 -4z m4724 -7 c-3 -8 -6 -5 -6 6 -1 11 2 17 5
13 3 -3 4 -12 1 -19z m1426 15 c-7 -2 -19 -2 -25 0 -7 3 -2 5 12 5 14 0 19 -2
13 -5z m-1416 -55 c-3 -8 -6 -5 -6 6 -1 11 2 17 5 13 3 -3 4 -12 1 -19z m150
-25 c-3 -10 -5 -2 -5 17 0 19 2 27 5 18 2 -10 2 -26 0 -35z m511 0 c-10 -2
-28 -2 -40 0 -13 2 -5 4 17 4 22 1 32 -1 23 -4z m-3984 -87 c215 -36 470 -77
566 -92 96 -15 169 -29 162 -32 -7 -2 -86 3 -175 12 -331 32 -409 37 -710 39
l-308 2 5 29 c17 85 27 106 48 106 12 0 197 -29 412 -64z m3483 2 c-3 -7 -5
-2 -5 12 0 14 2 19 5 13 2 -7 2 -19 0 -25z m10 -80 c-3 -8 -6 -5 -6 6 -1 11 2
17 5 13 3 -3 4 -12 1 -19z m666 15 c-7 -2 -19 -2 -25 0 -7 3 -2 5 12 5 14 0
19 -2 13 -5z m3345 0 c-10 -2 -26 -2 -35 0 -10 3 -2 5 17 5 19 0 27 -2 18 -5z
m-3221 -9 c-3 -3 -12 -4 -19 -1 -8 3 -5 6 6 6 11 1 17 -2 13 -5z m-423 -10
c36 -14 -1 -80 -41 -72 -26 5 -27 30 -3 56 23 25 22 24 44 16z m574 -1 c-16
-2 -40 -2 -55 0 -16 2 -3 4 27 4 30 0 43 -2 28 -4z m3372 -3 c-8 -5 -24 -9
-35 -9 l-20 0 20 9 c11 5 27 9 35 9 13 1 13 0 0 -9z m-3242 -7 c-16 -2 -40 -2
-55 0 -16 2 -3 4 27 4 30 0 43 -2 28 -4z m2570 0 c-10 -2 -26 -2 -35 0 -10 3
-2 5 17 5 19 0 27 -2 18 -5z m-203 -13 c-3 -5 -27 -9 -53 -9 l-47 2 40 7 c61
11 67 11 60 0z m-2157 -7 c-10 -2 -26 -2 -35 0 -10 3 -2 5 17 5 19 0 27 -2 18
-5z m135 -10 c-13 -2 -35 -2 -50 0 -16 2 -5 4 22 4 28 0 40 -2 28 -4z m1917 4
c-10 -9 -160 -18 -160 -10 0 4 37 10 82 11 45 2 80 1 78 -1z m-1757 -14 c-13
-2 -35 -2 -50 0 -16 2 -5 4 22 4 28 0 40 -2 28 -4z m2454 1 c-3 -3 -12 -4 -19
-1 -8 3 -5 6 6 6 11 1 17 -2 13 -5z m-2289 -11 c-10 -2 -26 -2 -35 0 -10 3 -2
5 17 5 19 0 27 -2 18 -5z m1378 -10 c34 -35 0 -286 -45 -327 -20 -18 -173 -31
-464 -39 l-138 -4 7 26 c21 80 21 202 0 297 l-7 30 278 13 c153 7 280 15 282
17 11 11 72 2 87 -13z m857 10 c-7 -2 -21 -2 -30 0 -10 3 -4 5 12 5 17 0 24
-2 18 -5z m-134 -7 c-2 -2 -26 -6 -54 -9 -34 -4 -42 -3 -25 3 25 8 87 13 79 6z
m-241 -23 c-10 -2 -26 -2 -35 0 -10 3 -2 5 17 5 19 0 27 -2 18 -5z m-365 -30
c-7 -2 -19 -2 -25 0 -7 3 -2 5 12 5 14 0 19 -2 13 -5z m-4807 -81 c9 -6 26
-82 18 -82 -22 0 -32 16 -27 41 7 37 0 36 -46 -1 -20 -17 -41 -35 -48 -40 -7
-6 -20 -10 -30 -10 -13 0 -10 5 12 19 17 10 45 33 64 50 37 33 40 35 57 23z
m1841 -178 c-3 -3 -12 -4 -19 -1 -8 3 -5 6 6 6 11 1 17 -2 13 -5z m808 -108
c116 -8 309 -20 430 -25 121 -6 271 -14 333 -17 l112 -6 32 -46 c18 -25 48
-64 67 -86 l36 -39 -28 7 c-15 3 -101 16 -190 26 -89 11 -317 43 -507 70 -190
27 -428 58 -530 70 -102 11 -243 27 -315 35 -71 8 -150 15 -175 15 -34 0 -41
3 -30 11 20 14 483 5 765 -15z m-6622 7 c-13 -2 -33 -2 -45 0 -13 2 -3 4 22 4
25 0 35 -2 23 -4z m195 0 c-21 -2 -55 -2 -75 0 -21 2 -4 4 37 4 41 0 58 -2 38
-4z m362 -14 c18 -10 28 -9 -120 -14 -101 -3 -119 1 -120 28 0 10 220 -3 240
-14z m70 -29 c-19 -13 -30 -13 -30 0 0 6 10 10 23 10 18 0 19 -2 7 -10z m80
-15 c0 -8 -4 -15 -10 -15 -5 0 -10 7 -10 15 0 8 5 15 10 15 6 0 10 -7 10 -15z
m737 -111 c-3 -3 -12 -4 -19 -1 -8 3 -5 6 6 6 11 1 17 -2 13 -5z"/>
<path d="M6640 6953 c0 -17 5 -35 10 -38 13 -8 13 35 0 55 -7 11 -10 7 -10
-17z"/>
<path d="M6423 6335 c0 -22 2 -30 4 -17 2 12 2 30 0 40 -3 9 -5 -1 -4 -23z"/>
<path d="M6412 6265 c0 -16 2 -22 5 -12 2 9 2 23 0 30 -3 6 -5 -1 -5 -18z"/>
<path d="M6378 7193 c7 -3 16 -2 19 1 4 3 -2 6 -13 5 -11 0 -14 -3 -6 -6z"/>
<path d="M6350 7160 c0 -5 4 -10 9 -10 6 0 13 5 16 10 3 6 -1 10 -9 10 -9 0
-16 -4 -16 -10z"/>
<path d="M6521 7144 c0 -11 3 -14 6 -6 3 7 2 16 -1 19 -3 4 -6 -2 -5 -13z"/>
<path d="M6183 7143 c-7 -2 -13 -11 -13 -18 0 -7 -6 -15 -12 -18 -7 -2 -10 -8
-6 -12 9 -10 51 21 54 40 2 15 -2 17 -23 8z"/>
<path d="M6118 7123 c7 -3 16 -2 19 1 4 3 -2 6 -13 5 -11 0 -14 -3 -6 -6z"/>
<path d="M6471 7114 c0 -11 3 -14 6 -6 3 7 2 16 -1 19 -3 4 -6 -2 -5 -13z"/>
<path d="M6497 7094 c-4 -4 -7 -14 -7 -23 0 -11 3 -12 11 -4 6 6 10 16 7 23
-2 6 -7 8 -11 4z"/>
<path d="M6440 7060 c0 -5 9 -10 20 -10 11 0 20 5 20 10 0 6 -9 10 -20 10 -11
0 -20 -4 -20 -10z"/>
<path d="M7218 6783 c7 -3 16 -2 19 1 4 3 -2 6 -13 5 -11 0 -14 -3 -6 -6z"/>
<path d="M8818 6493 c7 -3 16 -2 19 1 4 3 -2 6 -13 5 -11 0 -14 -3 -6 -6z"/>
<path d="M9223 6403 c9 -2 23 -2 30 0 6 3 -1 5 -18 5 -16 0 -22 -2 -12 -5z"/>
<path d="M8952 6330 c0 -14 2 -19 5 -12 2 6 2 18 0 25 -3 6 -5 1 -5 -13z"/>
<path d="M8972 6250 c0 -19 2 -27 5 -17 2 9 2 25 0 35 -3 9 -5 1 -5 -18z"/>
<path d="M9948 6173 c6 -2 18 -2 25 0 6 3 1 5 -13 5 -14 0 -19 -2 -12 -5z"/>
<path d="M9271 4120 c-8 -34 -11 -64 -7 -67 3 -3 6 6 6 20 0 19 5 27 17 27 13
0 14 3 6 11 -9 9 -9 16 0 30 8 13 8 22 1 29 -7 7 -14 -9 -23 -50z"/>
<path d="M9330 4001 c0 -5 -3 -18 -7 -28 -6 -16 -5 -16 10 -4 19 15 23 41 7
41 -5 0 -10 -4 -10 -9z"/>
<path d="M9125 3970 c-3 -4 7 -11 21 -14 35 -9 39 -4 8 11 -13 6 -26 8 -29 3z"/>
<path d="M9258 3973 c13 -3 19 -9 16 -15 -4 -7 -2 -8 4 -4 21 13 13 26 -15 25
-24 -2 -25 -2 -5 -6z"/>
<path d="M9048 3963 c6 -2 18 -2 25 0 6 3 1 5 -13 5 -14 0 -19 -2 -12 -5z"/>
<path d="M9380 3955 c7 -8 24 -14 39 -14 20 1 22 2 6 6 -11 3 -24 9 -29 14
-16 15 -29 10 -16 -6z"/>
<path d="M7230 6639 c0 -5 5 -7 10 -4 6 3 10 8 10 11 0 2 -4 4 -10 4 -5 0 -10
-5 -10 -11z"/>
<path d="M7223 5863 c9 -2 25 -2 35 0 9 3 1 5 -18 5 -19 0 -27 -2 -17 -5z"/>
<path d="M7106 5842 c-3 -5 8 -6 25 -4 16 2 29 6 29 8 0 8 -49 4 -54 -4z"/>
<path d="M2255 5860 c-27 -7 -27 -8 -5 -8 14 0 36 4 50 8 20 6 21 8 5 8 -11 0
-33 -4 -50 -8z"/>
<path d="M5560 5196 c0 -8 7 -17 16 -20 25 -9 26 -2 4 17 -16 13 -20 14 -20 3z"/>
<path d="M6020 5180 c-13 -8 -12 -10 3 -10 9 0 17 5 17 10 0 12 -1 12 -20 0z"/>
<path d="M5610 5160 c0 -5 14 -10 32 -10 36 0 35 4 -4 14 -17 4 -28 2 -28 -4z"/>
<path d="M5870 5150 l-25 -8 25 0 c14 0 45 3 70 7 l45 8 -45 1 c-25 0 -56 -4
-70 -8z"/>
<path d="M5690 5140 c-11 -7 -7 -10 18 -10 20 0 31 4 27 10 -8 13 -26 13 -45
0z"/>
<path d="M5998 5143 c7 -3 16 -2 19 1 4 3 -2 6 -13 5 -11 0 -14 -3 -6 -6z"/>
<path d="M5808 5133 c7 -3 16 -2 19 1 4 3 -2 6 -13 5 -11 0 -14 -3 -6 -6z"/>
<path d="M5072 5427 c-1 -27 -6 -46 -10 -43 -5 3 -9 -14 -11 -37 -2 -38 -1
-41 14 -26 12 12 15 31 12 85 -2 52 -4 57 -5 21z"/>
<path d="M5482 5225 c0 -16 2 -22 5 -12 2 9 2 23 0 30 -3 6 -5 -1 -5 -18z"/>
<path d="M4930 4928 c0 -19 2 -20 10 -8 13 19 13 30 0 30 -5 0 -10 -10 -10
-22z"/>
<path d="M4888 4363 c7 -3 16 -2 19 1 4 3 -2 6 -13 5 -11 0 -14 -3 -6 -6z"/>
<path d="M4880 4331 c0 -5 7 -12 16 -15 14 -5 15 -4 4 9 -14 17 -20 19 -20 6z"/>
<path d="M4148 5471 c-43 -4 -81 -11 -85 -15 -11 -11 150 3 162 15 5 5 7 8 5
7 -3 0 -40 -4 -82 -7z"/>
<path d="M4283 5473 c9 -2 23 -2 30 0 6 3 -1 5 -18 5 -16 0 -22 -2 -12 -5z"/>
<path d="M3700 5430 c-146 -16 -281 -34 -300 -39 -66 -20 -71 -28 -85 -141 -8
-57 -12 -107 -9 -111 2 -4 19 -3 37 2 17 5 66 10 107 11 72 1 73 1 25 8 -27 4
-42 8 -32 8 9 1 17 7 17 12 0 6 6 10 13 10 21 0 136 80 186 130 32 32 59 49
84 54 20 4 37 12 37 19 0 15 64 34 148 42 34 4 62 11 62 16 0 5 -6 9 -12 8 -7
-1 -132 -14 -278 -29z"/>
<path d="M3598 5163 c6 -2 18 -2 25 0 6 3 1 5 -13 5 -14 0 -19 -2 -12 -5z"/>
<path d="M9422 5434 c-31 -22 -68 -98 -82 -172 -18 -89 -8 -270 19 -346 46
-130 127 -214 196 -203 33 5 36 4 29 -16 -4 -14 7 -5 30 23 105 130 110 415
11 595 -64 115 -143 161 -203 119z m64 -97 c-15 -37 -35 -41 -47 -9 -11 30 24
70 46 52 12 -10 12 -17 1 -43z m137 -51 c69 -146 74 -379 9 -488 -34 -58 -96
-63 -152 -12 -92 83 -137 220 -125 379 6 80 15 104 36 105 3 0 9 -33 12 -73 7
-95 31 -176 67 -226 45 -61 106 -69 144 -18 19 25 21 42 20 145 0 102 -4 126
-27 185 -31 79 -21 81 16 3z"/>
<path d="M2353 5413 c9 -2 25 -2 35 0 9 3 1 5 -18 5 -19 0 -27 -2 -17 -5z"/>
<path d="M2240 5401 l-35 -7 35 -7 c21 -5 36 -4 38 3 5 13 32 13 32 0 0 -5 16
-10 35 -10 19 0 35 5 35 10 0 6 -10 8 -24 4 -13 -3 -27 -1 -30 5 -8 12 -30 12
-86 2z"/>
<path d="M2138 5383 c12 -2 30 -2 40 0 9 3 -1 5 -23 4 -22 0 -30 -2 -17 -4z"/>
<path d="M2070 5369 c-10 -6 0 -9 34 -9 54 0 57 4 11 13 -17 3 -37 2 -45 -4z"/>
<path d="M1988 5353 c6 -2 18 -2 25 0 6 3 1 5 -13 5 -14 0 -19 -2 -12 -5z"/>
<path d="M2503 5313 c9 -2 25 -2 35 0 9 3 1 5 -18 5 -19 0 -27 -2 -17 -5z"/>
<path d="M2658 5303 c6 -2 18 -2 25 0 6 3 1 5 -13 5 -14 0 -19 -2 -12 -5z"/>
<path d="M2695 5240 c3 -5 14 -10 23 -10 15 0 15 2 2 10 -20 13 -33 13 -25 0z"/>
<path d="M1302 4730 c0 -14 2 -19 5 -12 2 6 2 18 0 25 -3 6 -5 1 -5 -13z"/>
<path d="M4133 5012 c-13 -8 -47 -207 -38 -222 3 -4 57 -16 121 -25 93 -14
118 -15 124 -5 7 12 12 45 26 193 l7 67 -114 0 c-63 0 -119 -4 -126 -8z"/>
<path d="M3627 4950 c-43 -4 -83 -12 -87 -16 -13 -13 -27 -211 -17 -230 8 -14
21 -15 86 -9 91 8 135 27 150 63 5 15 11 65 13 112 l3 85 -35 1 c-19 1 -70 -2
-113 -6z m-7 -140 c0 -5 -4 -10 -10 -10 -19 0 -10 -18 13 -25 20 -6 20 -8 3
-12 -10 -3 -22 1 -27 9 -14 21 -10 48 6 48 8 0 15 -4 15 -10z m80 -30 c0 -5
-5 -10 -11 -10 -5 0 -7 5 -4 10 3 6 8 10 11 10 2 0 4 -4 4 -10z"/>
<path d="M2871 4889 c-35 -4 -67 -12 -71 -16 -4 -4 -12 -54 -18 -110 -6 -55
-17 -113 -23 -127 -7 -14 -10 -28 -8 -31 6 -5 202 25 211 34 3 3 11 51 18 106
6 55 13 112 16 128 5 25 3 27 -28 26 -18 -1 -62 -5 -97 -10z"/>
<path d="M1875 4660 c-37 -11 -78 -47 -72 -63 5 -16 198 -157 215 -157 8 0 12
20 12 65 0 68 -16 121 -43 143 -21 17 -75 23 -112 12z m55 -60 c-36 -12 -62
-12 -55 0 3 6 23 10 43 9 33 -1 34 -2 12 -9z"/>
<path d="M1687 4490 c-17 -63 -4 -140 30 -176 22 -24 29 -26 78 -21 52 5 145
49 145 68 0 5 -17 9 -37 9 -21 0 -63 11 -93 23 -51 21 -66 35 -106 103 -10 17
-11 16 -17 -6z"/>
<path d="M7567 4583 c-13 -13 -7 -21 13 -16 11 3 17 9 14 14 -6 11 -18 12 -27
2z"/>
<path d="M7640 4490 c0 -5 5 -10 11 -10 5 0 7 5 4 10 -3 6 -8 10 -11 10 -2 0
-4 -4 -4 -10z"/>
<path d="M8000 4191 c0 -10 14 -15 65 -25 26 -5 25 -3 -10 14 -47 22 -55 23
-55 11z"/>
<path d="M8068 4193 c7 -3 16 -2 19 1 4 3 -2 6 -13 5 -11 0 -14 -3 -6 -6z"/>
<path d="M8105 4180 c-3 -5 3 -10 14 -10 12 0 21 5 21 10 0 6 -6 10 -14 10 -8
0 -18 -4 -21 -10z"/>
<path d="M8350 4141 c-16 -4 1 -7 45 -7 48 0 61 2 40 7 -38 9 -54 9 -85 0z"/>
<path d="M4123 4205 c0 -22 2 -30 4 -17 2 12 2 30 0 40 -3 9 -5 -1 -4 -23z"/>
<path d="M7158 3903 c7 -3 16 -2 19 1 4 3 -2 6 -13 5 -11 0 -14 -3 -6 -6z"/>
<path d="M8518 3813 c6 -2 18 -2 25 0 6 3 1 5 -13 5 -14 0 -19 -2 -12 -5z"/>
<path d="M8708 3803 c7 -3 16 -2 19 1 4 3 -2 6 -13 5 -11 0 -14 -3 -6 -6z"/>
<path d="M2314 4342 c-1 -20 0 -29 3 -19 2 9 9 17 14 17 5 0 9 9 9 20 0 38
-25 21 -26 -18z"/>
<path d="M2305 4224 c-4 -36 -4 -69 1 -74 5 -5 10 23 11 66 1 41 0 74 -2 74
-2 0 -7 -30 -10 -66z"/>
<path d="M2301 4094 c0 -11 3 -14 6 -6 3 7 2 16 -1 19 -3 4 -6 -2 -5 -13z"/>
<path d="M2775 4304 c-16 -19 -32 -37 -35 -40 -3 -3 6 -4 20 -2 14 1 26 9 26
16 1 6 2 16 3 22 0 5 8 7 16 4 10 -4 15 0 15 15 0 29 -10 26 -45 -15z"/>
<path d="M6830 3750 c0 -6 7 -10 15 -10 8 0 15 2 15 4 0 2 -7 6 -15 10 -8 3
-15 1 -15 -4z"/>
<path d="M6908 3713 c7 -3 16 -2 19 1 4 3 -2 6 -13 5 -11 0 -14 -3 -6 -6z"/>
<path d="M7840 3600 c0 -5 5 -10 10 -10 6 0 10 5 10 10 0 6 -4 10 -10 10 -5 0
-10 -4 -10 -10z"/>
<path d="M7718 2757 c-3 -15 -2 -30 3 -32 13 -9 19 12 11 36 -9 23 -9 23 -14
-4z"/>
<path d="M7268 2663 c7 -3 16 -2 19 1 4 3 -2 6 -13 5 -11 0 -14 -3 -6 -6z"/>
<path d="M6258 4073 c7 -3 16 -2 19 1 4 3 -2 6 -13 5 -11 0 -14 -3 -6 -6z"/>
<path d="M6195 4060 c-4 -6 9 -10 31 -10 42 0 42 4 2 14 -15 3 -30 2 -33 -4z"/>
<path d="M4893 4043 c9 -2 25 -2 35 0 9 3 1 5 -18 5 -19 0 -27 -2 -17 -5z"/>
<path d="M6088 4043 c12 -2 32 -2 45 0 12 2 2 4 -23 4 -25 0 -35 -2 -22 -4z"/>
<path d="M1693 3843 c9 -2 23 -2 30 0 6 3 -1 5 -18 5 -16 0 -22 -2 -12 -5z"/>
<path d="M1213 3793 c26 -2 68 -2 95 0 26 2 4 3 -48 3 -52 0 -74 -1 -47 -3z"/>
<path d="M1445 3930 c-3 -5 -2 -10 4 -10 5 0 13 5 16 10 3 6 2 10 -4 10 -5 0
-13 -4 -16 -10z"/>
<path d="M5781 3724 c0 -11 3 -14 6 -6 3 7 2 16 -1 19 -3 4 -6 -2 -5 -13z"/>
<path d="M5523 3503 c9 -2 23 -2 30 0 6 3 -1 5 -18 5 -16 0 -22 -2 -12 -5z"/>
<path d="M5455 3479 c-12 -18 4 -23 29 -10 14 8 36 10 55 6 20 -4 31 -3 31 4
0 14 -107 14 -115 0z"/>
<path d="M5380 3470 c0 -5 15 -10 33 -9 27 0 29 2 12 9 -28 12 -45 12 -45 0z"/>
<path d="M3740 3646 c0 -3 9 -21 21 -40 11 -19 23 -59 25 -88 6 -65 -15 -112
-66 -146 -71 -47 -55 -76 29 -53 86 23 126 82 118 174 -7 81 -50 151 -95 155
-18 2 -32 1 -32 -2z"/>
<path d="M1325 3462 c-6 -4 -10 -22 -11 -40 l-1 -33 41 6 c103 15 107 17 84
47 -14 17 -97 32 -113 20z m99 -27 c3 -8 1 -15 -3 -15 -5 0 -16 -3 -24 -6 -12
-4 -14 0 -10 15 6 24 28 28 37 6z"/>
<path d="M1460 3446 c0 -9 5 -16 10 -16 6 0 10 4 10 9 0 6 -4 13 -10 16 -5 3
-10 -1 -10 -9z"/>
<path d="M1155 3320 c3 -5 8 -10 11 -10 2 0 4 5 4 10 0 6 -5 10 -11 10 -5 0
-7 -4 -4 -10z"/>
<path d="M1180 3269 c0 -5 5 -7 10 -4 6 3 10 8 10 11 0 2 -4 4 -10 4 -5 0 -10
-5 -10 -11z"/>
<path d="M1180 3120 c0 -5 5 -10 11 -10 5 0 7 5 4 10 -3 6 -8 10 -11 10 -2 0
-4 -4 -4 -10z"/>
<path d="M2820 3410 c0 -5 5 -10 11 -10 5 0 7 5 4 10 -3 6 -8 10 -11 10 -2 0
-4 -4 -4 -10z"/>
<path d="M7550 3480 c20 -13 43 -13 35 0 -3 6 -16 10 -28 10 -18 0 -19 -2 -7
-10z"/>
<path d="M7211 3244 c0 -11 3 -14 6 -6 3 7 2 16 -1 19 -3 4 -6 -2 -5 -13z"/>
<path d="M7660 3125 c-19 -19 -31 -35 -28 -35 10 0 71 60 66 65 -2 3 -20 -11
-38 -30z"/>
<path d="M10490 2466 c0 -2 9 -6 20 -9 11 -3 18 -1 14 4 -5 9 -34 13 -34 5z"/>
<path d="M7355 2570 c-25 -11 1 -11 35 0 20 6 21 8 5 8 -11 0 -29 -3 -40 -8z"/>
<path d="M6762 1930 c0 -14 2 -19 5 -12 2 6 2 18 0 25 -3 6 -5 1 -5 -13z"/>
<path d="M6741 1804 c0 -11 3 -14 6 -6 3 7 2 16 -1 19 -3 4 -6 -2 -5 -13z"/>
<path d="M2748 2473 c12 -2 32 -2 45 0 12 2 2 4 -23 4 -25 0 -35 -2 -22 -4z"/>
<path d="M2853 2463 c9 -2 25 -2 35 0 9 3 1 5 -18 5 -19 0 -27 -2 -17 -5z"/>
<path d="M3718 2333 c6 -2 18 -2 25 0 6 3 1 5 -13 5 -14 0 -19 -2 -12 -5z"/>
<path d="M4591 1794 c0 -11 3 -14 6 -6 3 7 2 16 -1 19 -3 4 -6 -2 -5 -13z"/>
<path d="M10220 2180 c0 -5 7 -7 15 -4 8 4 15 8 15 10 0 2 -7 4 -15 4 -8 0
-15 -4 -15 -10z"/>
<path d="M5363 1841 c-56 -14 -120 -59 -165 -116 -94 -119 -138 -321 -104
-490 29 -150 112 -295 206 -360 55 -38 61 -26 7 16 -109 86 -168 194 -198 364
-13 78 -7 213 15 291 49 179 195 301 331 278 60 -10 105 -36 157 -92 80 -85
129 -202 148 -354 21 -157 -19 -354 -94 -464 -14 -21 -23 -40 -21 -42 18 -19
87 107 121 223 25 83 25 264 0 365 -25 100 -84 225 -133 280 -73 82 -183 123
-270 101z"/>
<path d="M5390 1619 c-36 -14 -69 -48 -93 -94 -32 -62 -36 -202 -8 -294 35
-117 109 -181 183 -161 44 13 61 31 94 105 23 51 27 73 25 140 0 44 -5 94 -10
110 -8 24 -9 16 -10 -45 0 -82 -14 -178 -30 -208 -5 -10 -18 -25 -28 -33 -16
-12 -17 -12 -6 2 37 47 60 196 35 221 -9 9 -12 -1 -12 -42 0 -80 -17 -130 -57
-167 -39 -38 -43 -38 -87 -18 -106 50 -130 329 -38 429 37 38 66 48 110 36 48
-13 54 -4 9 15 -42 17 -43 17 -77 4z"/>
<path d="M5531 1548 c21 -38 29 -46 29 -29 0 6 -11 23 -25 38 l-26 28 22 -37z"/>
<path d="M5374 1477 c-23 -35 -39 -77 -30 -77 3 0 12 15 20 34 8 19 24 44 35
55 12 12 16 21 9 21 -7 0 -22 -15 -34 -33z"/>
<path d="M5492 1495 c25 -59 39 -85 48 -90 14 -9 -9 44 -33 75 -11 14 -18 21
-15 15z"/>
<path d="M5604 1480 c4 -14 11 -62 16 -108 15 -135 -14 -248 -77 -307 -16 -14
-22 -25 -14 -25 19 0 70 57 87 99 35 83 34 273 -2 338 -15 27 -16 27 -10 3z"/>
<path d="M5390 1398 c0 -12 1 -19 3 -17 1 2 9 12 16 22 12 14 11 17 -3 17 -10
0 -16 -8 -16 -22z"/>
<path d="M5451 1374 c0 -11 3 -14 6 -6 3 7 2 16 -1 19 -3 4 -6 -2 -5 -13z"/>
<path d="M5385 1336 c-5 -24 -4 -41 3 -45 5 -3 11 -15 13 -26 6 -29 32 -25 43
7 11 30 0 51 -14 28 -12 -20 -22 -8 -30 37 l-7 38 -8 -39z"/>
<path d="M5343 1304 c4 -11 9 -31 12 -46 8 -33 40 -64 50 -48 3 6 -5 24 -19
41 -14 17 -26 37 -26 44 0 8 -5 17 -11 21 -7 4 -9 0 -6 -12z"/>
<path d="M0 7486 c0 -14 34 -28 44 -18 15 14 4 32 -19 32 -15 0 -25 -6 -25
-14z"/>
<path d="M58 973 c6 -2 18 -2 25 0 6 3 1 5 -13 5 -14 0 -19 -2 -12 -5z"/>
<path d="M120 960 c20 -13 33 -13 25 0 -3 6 -14 10 -23 10 -15 0 -15 -2 -2
-10z"/>
<path d="M9540 570 c8 -5 29 -9 45 -9 26 0 27 2 10 9 -11 5 -31 9 -45 9 -20 1
-22 -1 -10 -9z"/>
<path d="M7763 93 c9 -2 23 -2 30 0 6 3 -1 5 -18 5 -16 0 -22 -2 -12 -5z"/>
</g>
</svg>
